<svg xmlns:dc="http://purl.org/dc/elements/1.1/" xmlns:cc="http://creativecommons.org/ns#" xmlns:rdf="http://www.w3.org/1999/02/22-rdf-syntax-ns#" xmlns:svg="http://www.w3.org/2000/svg" xmlns="http://www.w3.org/2000/svg" viewBox="0 0 526 430" xml:space="preserve" id="el_TzCTUyfTK" version="1.1"><style>@-webkit-keyframes kf_el_FiAEsbNt8da_an_-A9wG5Ka5{5.33%{-webkit-transform: translate(-85.45499420166016px, -3.9140000343322754px) translate(85.45499420166016px, 3.9140000343322754px) translate(0px, 0px);transform: translate(-85.45499420166016px, -3.9140000343322754px) translate(85.45499420166016px, 3.9140000343322754px) translate(0px, 0px);}25.67%{-webkit-transform: translate(-85.45499420166016px, -3.9140000343322754px) translate(85.45499420166016px, 3.9140000343322754px) translate(0px, -20px);transform: translate(-85.45499420166016px, -3.9140000343322754px) translate(85.45499420166016px, 3.9140000343322754px) translate(0px, -20px);}46%{-webkit-transform: translate(-85.45499420166016px, -3.9140000343322754px) translate(85.45499420166016px, 3.9140000343322754px) translate(-15px, -10px);transform: translate(-85.45499420166016px, -3.9140000343322754px) translate(85.45499420166016px, 3.9140000343322754px) translate(-15px, -10px);}65.33%{-webkit-transform: translate(-85.45499420166016px, -3.9140000343322754px) translate(85.45499420166016px, 3.9140000343322754px) translate(0px, 0px);transform: translate(-85.45499420166016px, -3.9140000343322754px) translate(85.45499420166016px, 3.9140000343322754px) translate(0px, 0px);}85%{-webkit-transform: translate(-85.45499420166016px, -3.9140000343322754px) translate(85.45499420166016px, 3.9140000343322754px) translate(-15px, -20px);transform: translate(-85.45499420166016px, -3.9140000343322754px) translate(85.45499420166016px, 3.9140000343322754px) translate(-15px, -20px);}0%{-webkit-transform: translate(-85.45499420166016px, -3.9140000343322754px) translate(85.45499420166016px, 3.9140000343322754px) translate(0px, 0px);transform: translate(-85.45499420166016px, -3.9140000343322754px) translate(85.45499420166016px, 3.9140000343322754px) translate(0px, 0px);}100%{-webkit-transform: translate(-85.45499420166016px, -3.9140000343322754px) translate(85.45499420166016px, 3.9140000343322754px) translate(-15px, -20px);transform: translate(-85.45499420166016px, -3.9140000343322754px) translate(85.45499420166016px, 3.9140000343322754px) translate(-15px, -20px);}}@keyframes kf_el_FiAEsbNt8da_an_-A9wG5Ka5{5.33%{-webkit-transform: translate(-85.45499420166016px, -3.9140000343322754px) translate(85.45499420166016px, 3.9140000343322754px) translate(0px, 0px);transform: translate(-85.45499420166016px, -3.9140000343322754px) translate(85.45499420166016px, 3.9140000343322754px) translate(0px, 0px);}25.67%{-webkit-transform: translate(-85.45499420166016px, -3.9140000343322754px) translate(85.45499420166016px, 3.9140000343322754px) translate(0px, -20px);transform: translate(-85.45499420166016px, -3.9140000343322754px) translate(85.45499420166016px, 3.9140000343322754px) translate(0px, -20px);}46%{-webkit-transform: translate(-85.45499420166016px, -3.9140000343322754px) translate(85.45499420166016px, 3.9140000343322754px) translate(-15px, -10px);transform: translate(-85.45499420166016px, -3.9140000343322754px) translate(85.45499420166016px, 3.9140000343322754px) translate(-15px, -10px);}65.33%{-webkit-transform: translate(-85.45499420166016px, -3.9140000343322754px) translate(85.45499420166016px, 3.9140000343322754px) translate(0px, 0px);transform: translate(-85.45499420166016px, -3.9140000343322754px) translate(85.45499420166016px, 3.9140000343322754px) translate(0px, 0px);}85%{-webkit-transform: translate(-85.45499420166016px, -3.9140000343322754px) translate(85.45499420166016px, 3.9140000343322754px) translate(-15px, -20px);transform: translate(-85.45499420166016px, -3.9140000343322754px) translate(85.45499420166016px, 3.9140000343322754px) translate(-15px, -20px);}0%{-webkit-transform: translate(-85.45499420166016px, -3.9140000343322754px) translate(85.45499420166016px, 3.9140000343322754px) translate(0px, 0px);transform: translate(-85.45499420166016px, -3.9140000343322754px) translate(85.45499420166016px, 3.9140000343322754px) translate(0px, 0px);}100%{-webkit-transform: translate(-85.45499420166016px, -3.9140000343322754px) translate(85.45499420166016px, 3.9140000343322754px) translate(-15px, -20px);transform: translate(-85.45499420166016px, -3.9140000343322754px) translate(85.45499420166016px, 3.9140000343322754px) translate(-15px, -20px);}}@-webkit-keyframes kf_el_7hYgHd7xjb6_an_yXuUyjEqq{10%{-webkit-transform: translate(-76.22200012207031px, -3.4910006523132324px) translate(76.22200012207031px, 3.4910006523132324px) translate(0px, 0px);transform: translate(-76.22200012207031px, -3.4910006523132324px) translate(76.22200012207031px, 3.4910006523132324px) translate(0px, 0px);}30.33%{-webkit-transform: translate(-76.22200012207031px, -3.4910006523132324px) translate(76.22200012207031px, 3.4910006523132324px) translate(30px, -15px);transform: translate(-76.22200012207031px, -3.4910006523132324px) translate(76.22200012207031px, 3.4910006523132324px) translate(30px, -15px);}50.67%{-webkit-transform: translate(-76.22200012207031px, -3.4910006523132324px) translate(76.22200012207031px, 3.4910006523132324px) translate(60px, 10px);transform: translate(-76.22200012207031px, -3.4910006523132324px) translate(76.22200012207031px, 3.4910006523132324px) translate(60px, 10px);}71%{-webkit-transform: translate(-76.22200012207031px, -3.4910006523132324px) translate(76.22200012207031px, 3.4910006523132324px) translate(90px, -15px);transform: translate(-76.22200012207031px, -3.4910006523132324px) translate(76.22200012207031px, 3.4910006523132324px) translate(90px, -15px);}90.67%{-webkit-transform: translate(-76.22200012207031px, -3.4910006523132324px) translate(76.22200012207031px, 3.4910006523132324px) translate(120px, 0px);transform: translate(-76.22200012207031px, -3.4910006523132324px) translate(76.22200012207031px, 3.4910006523132324px) translate(120px, 0px);}100%{-webkit-transform: translate(-76.22200012207031px, -3.4910006523132324px) translate(76.22200012207031px, 3.4910006523132324px) translate(0px, 0px);transform: translate(-76.22200012207031px, -3.4910006523132324px) translate(76.22200012207031px, 3.4910006523132324px) translate(0px, 0px);}0%{-webkit-transform: translate(-76.22200012207031px, -3.4910006523132324px) translate(76.22200012207031px, 3.4910006523132324px) translate(0px, 0px);transform: translate(-76.22200012207031px, -3.4910006523132324px) translate(76.22200012207031px, 3.4910006523132324px) translate(0px, 0px);}}@keyframes kf_el_7hYgHd7xjb6_an_yXuUyjEqq{10%{-webkit-transform: translate(-76.22200012207031px, -3.4910006523132324px) translate(76.22200012207031px, 3.4910006523132324px) translate(0px, 0px);transform: translate(-76.22200012207031px, -3.4910006523132324px) translate(76.22200012207031px, 3.4910006523132324px) translate(0px, 0px);}30.33%{-webkit-transform: translate(-76.22200012207031px, -3.4910006523132324px) translate(76.22200012207031px, 3.4910006523132324px) translate(30px, -15px);transform: translate(-76.22200012207031px, -3.4910006523132324px) translate(76.22200012207031px, 3.4910006523132324px) translate(30px, -15px);}50.67%{-webkit-transform: translate(-76.22200012207031px, -3.4910006523132324px) translate(76.22200012207031px, 3.4910006523132324px) translate(60px, 10px);transform: translate(-76.22200012207031px, -3.4910006523132324px) translate(76.22200012207031px, 3.4910006523132324px) translate(60px, 10px);}71%{-webkit-transform: translate(-76.22200012207031px, -3.4910006523132324px) translate(76.22200012207031px, 3.4910006523132324px) translate(90px, -15px);transform: translate(-76.22200012207031px, -3.4910006523132324px) translate(76.22200012207031px, 3.4910006523132324px) translate(90px, -15px);}90.67%{-webkit-transform: translate(-76.22200012207031px, -3.4910006523132324px) translate(76.22200012207031px, 3.4910006523132324px) translate(120px, 0px);transform: translate(-76.22200012207031px, -3.4910006523132324px) translate(76.22200012207031px, 3.4910006523132324px) translate(120px, 0px);}100%{-webkit-transform: translate(-76.22200012207031px, -3.4910006523132324px) translate(76.22200012207031px, 3.4910006523132324px) translate(0px, 0px);transform: translate(-76.22200012207031px, -3.4910006523132324px) translate(76.22200012207031px, 3.4910006523132324px) translate(0px, 0px);}0%{-webkit-transform: translate(-76.22200012207031px, -3.4910006523132324px) translate(76.22200012207031px, 3.4910006523132324px) translate(0px, 0px);transform: translate(-76.22200012207031px, -3.4910006523132324px) translate(76.22200012207031px, 3.4910006523132324px) translate(0px, 0px);}}@-webkit-keyframes kf_el_oqiHlkxGEYc_an_8fQtmwguJ{0%{-webkit-transform: translate(-96.3580093383789px, -4.413000106811523px) translate(96.3580093383789px, 4.413000106811523px) translate(0px, 0px);transform: translate(-96.3580093383789px, -4.413000106811523px) translate(96.3580093383789px, 4.413000106811523px) translate(0px, 0px);}20.33%{-webkit-transform: translate(-96.3580093383789px, -4.413000106811523px) translate(96.3580093383789px, 4.413000106811523px) translate(30px, -15px);transform: translate(-96.3580093383789px, -4.413000106811523px) translate(96.3580093383789px, 4.413000106811523px) translate(30px, -15px);}40%{-webkit-transform: translate(-96.3580093383789px, -4.413000106811523px) translate(96.3580093383789px, 4.413000106811523px) translate(60px, 10px);transform: translate(-96.3580093383789px, -4.413000106811523px) translate(96.3580093383789px, 4.413000106811523px) translate(60px, 10px);}60.33%{-webkit-transform: translate(-96.3580093383789px, -4.413000106811523px) translate(96.3580093383789px, 4.413000106811523px) translate(90px, -15px);transform: translate(-96.3580093383789px, -4.413000106811523px) translate(96.3580093383789px, 4.413000106811523px) translate(90px, -15px);}80.33%{-webkit-transform: translate(-96.3580093383789px, -4.413000106811523px) translate(96.3580093383789px, 4.413000106811523px) translate(120px, 0px);transform: translate(-96.3580093383789px, -4.413000106811523px) translate(96.3580093383789px, 4.413000106811523px) translate(120px, 0px);}100%{-webkit-transform: translate(-96.3580093383789px, -4.413000106811523px) translate(96.3580093383789px, 4.413000106811523px) translate(0px, 0px);transform: translate(-96.3580093383789px, -4.413000106811523px) translate(96.3580093383789px, 4.413000106811523px) translate(0px, 0px);}}@keyframes kf_el_oqiHlkxGEYc_an_8fQtmwguJ{0%{-webkit-transform: translate(-96.3580093383789px, -4.413000106811523px) translate(96.3580093383789px, 4.413000106811523px) translate(0px, 0px);transform: translate(-96.3580093383789px, -4.413000106811523px) translate(96.3580093383789px, 4.413000106811523px) translate(0px, 0px);}20.33%{-webkit-transform: translate(-96.3580093383789px, -4.413000106811523px) translate(96.3580093383789px, 4.413000106811523px) translate(30px, -15px);transform: translate(-96.3580093383789px, -4.413000106811523px) translate(96.3580093383789px, 4.413000106811523px) translate(30px, -15px);}40%{-webkit-transform: translate(-96.3580093383789px, -4.413000106811523px) translate(96.3580093383789px, 4.413000106811523px) translate(60px, 10px);transform: translate(-96.3580093383789px, -4.413000106811523px) translate(96.3580093383789px, 4.413000106811523px) translate(60px, 10px);}60.33%{-webkit-transform: translate(-96.3580093383789px, -4.413000106811523px) translate(96.3580093383789px, 4.413000106811523px) translate(90px, -15px);transform: translate(-96.3580093383789px, -4.413000106811523px) translate(96.3580093383789px, 4.413000106811523px) translate(90px, -15px);}80.33%{-webkit-transform: translate(-96.3580093383789px, -4.413000106811523px) translate(96.3580093383789px, 4.413000106811523px) translate(120px, 0px);transform: translate(-96.3580093383789px, -4.413000106811523px) translate(96.3580093383789px, 4.413000106811523px) translate(120px, 0px);}100%{-webkit-transform: translate(-96.3580093383789px, -4.413000106811523px) translate(96.3580093383789px, 4.413000106811523px) translate(0px, 0px);transform: translate(-96.3580093383789px, -4.413000106811523px) translate(96.3580093383789px, 4.413000106811523px) translate(0px, 0px);}}#el_TzCTUyfTK *{-webkit-animation-duration: 10s;animation-duration: 10s;-webkit-animation-iteration-count: infinite;animation-iteration-count: infinite;-webkit-animation-timing-function: cubic-bezier(0, 0, 1, 1);animation-timing-function: cubic-bezier(0, 0, 1, 1);}#el_8Lij44SUTa{-webkit-transform: matrix(1.3333333,0,0,-1.3333333,0,430.204);transform: matrix(1.3333333,0,0,-1.3333333,0,430.204);}#el_Ow6EGcQzNI{fill: url(#linearGradient30);stroke: none;}#el_NW_VgNLD13{fill: url(#linearGradient52);stroke: none;}#el_mmotT2-VdBd{fill: url(#linearGradient74);stroke: none;}#el_EV8bI3WkMcm{fill: url(#linearGradient96);stroke: none;}#el_-wqGZ9Ow-Gs{fill: url(#linearGradient118);stroke: none;}#el_YkEzQKfMPYF{fill: url(#linearGradient140);stroke: none;}#el_OjFRhX5ieNA{fill: url(#linearGradient162);stroke: none;}#el_d_Cewi3QlS1{fill: url(#linearGradient184);stroke: none;}#el_xkGjfLQ59ez{-webkit-transform: translate(114.6636px, 242.1318px);transform: translate(114.6636px, 242.1318px);}#el_oqiHlkxGEYc{fill: #ffffff;fill-opacity: 1;fill-rule: nonzero;stroke: none;}#el_0FXVHxZwuc5{-webkit-transform: translate(236.9653px, 279.2236px);transform: translate(236.9653px, 279.2236px);}#el_7hYgHd7xjb6{fill: #ffffff;fill-opacity: 1;fill-rule: nonzero;stroke: none;}#el_CqoGBz-cr7z{-webkit-transform: translate(391.4814px, 271.3184px);transform: translate(391.4814px, 271.3184px);}#el_FiAEsbNt8da{fill: #ffffff;fill-opacity: 1;fill-rule: nonzero;stroke: none;}#el_jmHHz52rl0M{fill: url(#linearGradient226);stroke: none;}#el_iy3LcaKlyNC{fill: url(#linearGradient248);stroke: none;}#el_cizvlEGY8nn{fill: url(#linearGradient270);stroke: none;}#el_oqiHlkxGEYc_an_8fQtmwguJ{-webkit-animation-fill-mode: backwards;animation-fill-mode: backwards;-webkit-transform: translate(-96.3580093383789px, -4.413000106811523px) translate(96.3580093383789px, 4.413000106811523px) translate(0px, 0px);transform: translate(-96.3580093383789px, -4.413000106811523px) translate(96.3580093383789px, 4.413000106811523px) translate(0px, 0px);-webkit-animation-name: kf_el_oqiHlkxGEYc_an_8fQtmwguJ;animation-name: kf_el_oqiHlkxGEYc_an_8fQtmwguJ;-webkit-animation-timing-function: cubic-bezier(0.42, 0, 0.58, 1);animation-timing-function: cubic-bezier(0.42, 0, 0.58, 1);}#el_7hYgHd7xjb6_an_yXuUyjEqq{-webkit-animation-fill-mode: backwards;animation-fill-mode: backwards;-webkit-transform: translate(-76.22200012207031px, -3.4910006523132324px) translate(76.22200012207031px, 3.4910006523132324px) translate(0px, 0px);transform: translate(-76.22200012207031px, -3.4910006523132324px) translate(76.22200012207031px, 3.4910006523132324px) translate(0px, 0px);-webkit-animation-name: kf_el_7hYgHd7xjb6_an_yXuUyjEqq;animation-name: kf_el_7hYgHd7xjb6_an_yXuUyjEqq;-webkit-animation-timing-function: cubic-bezier(0, 0, 1, 1);animation-timing-function: cubic-bezier(0, 0, 1, 1);}#el_FiAEsbNt8da_an_-A9wG5Ka5{-webkit-animation-fill-mode: backwards;animation-fill-mode: backwards;-webkit-transform: translate(-85.45499420166016px, -3.9140000343322754px) translate(85.45499420166016px, 3.9140000343322754px) translate(0px, 0px);transform: translate(-85.45499420166016px, -3.9140000343322754px) translate(85.45499420166016px, 3.9140000343322754px) translate(0px, 0px);-webkit-animation-name: kf_el_FiAEsbNt8da_an_-A9wG5Ka5;animation-name: kf_el_FiAEsbNt8da_an_-A9wG5Ka5;-webkit-animation-timing-function: cubic-bezier(0, 0, 1, 1);animation-timing-function: cubic-bezier(0, 0, 1, 1);}</style><metadata id="metadata8"><rdf:rdf><cc:work rdf:about=""><dc:format>image/svg+xml</dc:format><dc:type rdf:resource="http://purl.org/dc/dcmitype/StillImage"/></cc:work></rdf:rdf></metadata><defs id="defs6"><linearGradient id="linearGradient30" spreadMethod="pad" gradientTransform="matrix(27.333132,-78.66729,-78.66729,-27.333132,150.69873,275.29102)" gradientUnits="userSpaceOnUse" y2="0" x2="1" y1="0" x1="0"><stop id="stop24" offset="0" style="stop-opacity:1;stop-color:#ee1b48"/><stop id="stop26" offset="0.21681038" style="stop-opacity:1;stop-color:#ee1b48"/><stop id="stop28" offset="1" style="stop-opacity:1;stop-color:#861b48"/></linearGradient><linearGradient id="linearGradient52" spreadMethod="pad" gradientTransform="matrix(381.59229,0,0,-381.59229,2.84375,178.61914)" gradientUnits="userSpaceOnUse" y2="0" x2="1" y1="0" x1="0"><stop id="stop46" offset="0" style="stop-opacity:1;stop-color:#ee1b48"/><stop id="stop48" offset="0.21681038" style="stop-opacity:1;stop-color:#ee1b48"/><stop id="stop50" offset="1" style="stop-opacity:1;stop-color:#861b48"/></linearGradient><linearGradient id="linearGradient74" spreadMethod="pad" gradientTransform="matrix(78.500008,-158,-158,-78.500008,117.05908,241.15918)" gradientUnits="userSpaceOnUse" y2="0" x2="1" y1="0" x1="0"><stop id="stop68" offset="0" style="stop-opacity:1;stop-color:#ee1b48"/><stop id="stop70" offset="0.21681038" style="stop-opacity:1;stop-color:#ee1b48"/><stop id="stop72" offset="1" style="stop-opacity:1;stop-color:#861b48"/></linearGradient><linearGradient id="linearGradient96" spreadMethod="pad" gradientTransform="matrix(33.333431,-76.666046,-76.666046,-33.333431,179.59082,123.74414)" gradientUnits="userSpaceOnUse" y2="0" x2="1" y1="0" x1="0"><stop id="stop90" offset="0" style="stop-opacity:1;stop-color:#ee1b48"/><stop id="stop92" offset="0.21681038" style="stop-opacity:1;stop-color:#ee1b48"/><stop id="stop94" offset="1" style="stop-opacity:1;stop-color:#861b48"/></linearGradient><clipPath id="clipPath106" clipPathUnits="userSpaceOnUse"><path id="path104" d="m 287.471,127.343 c -5.964,-6.993 -15.066,-19.836 -24.153,-21.63 v 0 c -11.839,-2.336 -30.423,10.085 -42.13,13.329 v 0 c -4.473,1.239 -9.166,2.357 -13.653,1.174 v 0 C 189.752,115.523 184.303,89.135 163.592,88.601 v 0 c -15.86,-0.41 -29.841,7.908 -45.164,10.782 v 0 C 104.396,102.017 93.981,92.795 83.316,84.255 v 0 C 67.529,71.614 47.468,70.952 29.022,75.097 v 0 c -0.934,0.21 -1.907,0.431 -2.915,0.666 v 0 c 6.669,-8.238 14.32,-15.44 22.34,-21.036 v 0 C 63.223,44.416 82.336,38.876 100.721,41.673 v 0 c 19.119,2.909 36.013,12.865 54.249,18.667 v 0 c 19.456,6.188 39.431,2.211 58.25,-4.047 v 0 c 26.401,-8.778 56.529,-13.156 83.694,-5.219 v 0 c 13.249,3.871 25.417,10.916 34.655,21.262 v 0 c 4.521,5.062 10.03,11.945 12.206,18.46 v 0 c 0.493,1.479 0.813,3.015 1.014,4.596 v 0 c 0.602,4.731 0.365,10.049 0.596,15.298 v 0 c -7.01,7.863 -11.275,18.107 -20.733,22.874 v 0 c -5.154,2.598 -10.494,3.957 -15.669,3.957 v 0 c -7.998,-10e-4 -15.601,-3.246 -21.512,-10.178"/></clipPath><linearGradient id="linearGradient118" spreadMethod="pad" gradientTransform="matrix(-2.6e-6,-59,-59,2.6e-6,193.27344,131.33203)" gradientUnits="userSpaceOnUse" y2="0" x2="1" y1="0" x1="0"><stop id="stop112" offset="0" style="stop-opacity:1;stop-color:#ee1b48"/><stop id="stop114" offset="0.21681038" style="stop-opacity:1;stop-color:#ee1b48"/><stop id="stop116" offset="1" style="stop-opacity:1;stop-color:#861b48"/></linearGradient><clipPath id="clipPath128" clipPathUnits="userSpaceOnUse"><path id="path126" d="M 162.849,85.757 C 118.831,57.666 35.785,89.895 10.638,100.782 v 0 C 18.951,82.202 33.021,65.491 48.447,54.727 v 0 C 63.223,44.416 82.336,38.876 100.721,41.673 v 0 c 19.119,2.909 36.013,12.865 54.249,18.667 v 0 c 19.456,6.188 39.431,2.211 58.25,-4.047 v 0 c 26.401,-8.778 56.529,-13.156 83.694,-5.219 v 0 c 13.249,3.871 25.417,10.916 34.655,21.262 v 0 c 1.522,1.704 3.156,3.615 4.738,5.649 v 0 c -10.521,1.384 -21.725,3.776 -32.386,7.772 v 0 c -21.67,8.124 -48.903,18.358 -78.385,18.359 v 0 C 205.344,104.118 184.1,99.32 162.849,85.757"/></clipPath><linearGradient id="linearGradient140" spreadMethod="pad" gradientTransform="matrix(-7.4999928,-50.5,-50.5,7.4999928,199.69092,106.44727)" gradientUnits="userSpaceOnUse" y2="0" x2="1" y1="0" x1="0"><stop id="stop134" offset="0" style="stop-opacity:1;stop-color:#ee1b48"/><stop id="stop136" offset="0.21681038" style="stop-opacity:1;stop-color:#ee1b48"/><stop id="stop138" offset="1" style="stop-opacity:1;stop-color:#861b48"/></linearGradient><clipPath id="clipPath150" clipPathUnits="userSpaceOnUse"><path id="path148" d="M 16.408,89.678 C 24.749,75.633 36.17,63.294 48.447,54.727 v 0 C 63.223,44.416 82.336,38.876 100.721,41.673 v 0 c 19.119,2.909 36.013,12.865 54.249,18.667 v 0 c 19.456,6.188 39.431,2.211 58.25,-4.047 v 0 c 18.182,-6.045 38.134,-10.003 57.665,-9.29 v 0 C 223.716,67.105 147.772,92.151 62.217,92.152 v 0 C 47.208,92.153 31.905,91.382 16.408,89.678"/></clipPath><linearGradient id="linearGradient162" spreadMethod="pad" gradientTransform="matrix(14.999998,-48.500004,-48.500004,-14.999998,127.9751,92.959961)" gradientUnits="userSpaceOnUse" y2="0" x2="1" y1="0" x1="0"><stop id="stop156" offset="0" style="stop-opacity:1;stop-color:#ee1b48"/><stop id="stop158" offset="0.21681038" style="stop-opacity:1;stop-color:#ee1b48"/><stop id="stop160" offset="1" style="stop-opacity:1;stop-color:#861b48"/></linearGradient><clipPath id="clipPath172" clipPathUnits="userSpaceOnUse"><path id="path170" d="m 180.606,322.654 c -3.397,-0.774 -6.641,-2.133 -9.77,-3.723 v 0 c -3.095,-1.649 -6.107,-3.547 -8.822,-5.862 v 0 c -2.718,-2.303 -5.222,-4.917 -7.346,-7.858 v 0 c -0.539,-0.728 -0.993,-1.52 -1.487,-2.283 v 0 l -0.723,-1.156 -0.623,-1.217 -1.193,-2.383 -0.486,-0.947 c -0.171,-0.305 -0.389,-0.561 -0.574,-0.848 v 0 c -1.561,-2.183 -4,-3.341 -7.008,-3.413 v 0 c -1.481,-0.065 -3.034,0.092 -4.602,0.356 v 0 c -1.567,0.303 -3.148,0.704 -4.723,1.188 v 0 c -3.142,1.006 -6.282,2.253 -9.36,3.689 v 0 c -3.102,1.4 -6.145,2.971 -9.22,4.578 v 0 c 4.965,-4.86 10.719,-8.925 17.245,-11.837 v 0 c 3.286,-1.396 6.821,-2.52 10.739,-2.571 v 0 c 1.943,-0.028 2.065,-0.585 4.013,0.287 v 0 c 1.944,0.866 5.6,3.185 6.827,4.861 v 0 c 0.285,0.43 0.604,0.852 0.849,1.295 v 0 l 0.678,1.35 1.082,2.239 0.511,1.093 0.609,1.047 c 0.418,0.692 0.797,1.406 1.236,2.088 v 0 c 1.765,2.725 3.858,5.258 6.139,7.654 v 0 c 2.289,2.392 4.815,4.609 7.506,6.649 v 0 c 2.671,2.083 5.516,3.961 8.503,5.724 z"/></clipPath><linearGradient id="linearGradient184" spreadMethod="pad" gradientTransform="matrix(65.936523,0,0,-65.936523,114.66943,305.41016)" gradientUnits="userSpaceOnUse" y2="0" x2="1" y1="0" x1="0"><stop id="stop178" offset="0" style="stop-opacity:1;stop-color:#ee1b48"/><stop id="stop180" offset="0.21681038" style="stop-opacity:1;stop-color:#ee1b48"/><stop id="stop182" offset="1" style="stop-opacity:1;stop-color:#861b48"/></linearGradient><clipPath id="clipPath194" clipPathUnits="userSpaceOnUse"><path id="path192" d="M 0,322.653 H 394.928 V 0 H 0 Z"/></clipPath><clipPath id="clipPath214" clipPathUnits="userSpaceOnUse"><path id="path212" d="m 313.69,51.259 c -0.77,-0.461 -1.568,-0.872 -2.372,-1.268 v 0 l -2.379,-1.236 c -1.637,-0.719 -3.202,-1.569 -4.861,-2.211 v 0 c -3.251,-1.427 -6.59,-2.621 -9.975,-3.635 v 0 c -6.76,-2.079 -13.773,-3.277 -20.914,-3.766 v 0 c -7.152,-0.46 -14.423,-0.264 -21.85,0.825 v 0 c 1.611,-0.993 3.347,-1.774 5.108,-2.477 v 0 c 1.763,-0.707 3.576,-1.286 5.414,-1.792 v 0 c 3.68,-0.995 7.476,-1.598 11.306,-1.876 v 0 c 7.658,-0.512 15.488,0.318 22.89,2.588 v 0 c 0.93,0.268 1.851,0.565 2.757,0.904 v 0 c 0.908,0.335 1.829,0.628 2.723,0.999 v 0 c 1.777,0.76 3.563,1.497 5.269,2.399 v 0 c 1.738,0.838 3.387,1.84 5.043,2.813 v 0 c 1.603,1.061 3.236,2.07 4.744,3.254 v 0 c 6.115,4.605 11.462,10.123 15.55,16.459 v 0 C 326.011,58.86 319.987,54.74 313.69,51.259"/></clipPath><linearGradient id="linearGradient226" spreadMethod="pad" gradientTransform="matrix(80.804199,0,0,-80.804199,251.33936,48.458008)" gradientUnits="userSpaceOnUse" y2="0" x2="1" y1="0" x1="0"><stop id="stop220" offset="0" style="stop-opacity:1;stop-color:#ee1b48"/><stop id="stop222" offset="0.21681038" style="stop-opacity:1;stop-color:#ee1b48"/><stop id="stop224" offset="1" style="stop-opacity:1;stop-color:#861b48"/></linearGradient><clipPath id="clipPath236" clipPathUnits="userSpaceOnUse"><path id="path234" d="m 57.36,216.828 c -0.931,-1.634 -2.09,-3.064 -3.48,-4.307 v 0 c -2.695,-2.535 -5.975,-4.549 -9.287,-6.507 v 0 c -3.346,-1.928 -6.795,-3.759 -10.249,-5.593 v 0 l -5.222,-2.72 -2.612,-1.372 -1.312,-0.696 -1.361,-0.787 c -1.798,-1.079 -3.636,-2.084 -5.293,-3.401 v 0 l -2.52,-1.896 -2.34,-2.131 -1.157,-1.075 c -0.379,-0.365 -0.715,-0.777 -1.074,-1.163 v 0 c -0.71,-0.782 -1.396,-1.582 -2.088,-2.372 v 0 c -0.644,-0.835 -1.257,-1.695 -1.872,-2.547 v 0 c -0.298,-0.433 -0.618,-0.85 -0.897,-1.294 v 0 l -0.803,-1.358 c -1.111,-1.781 -1.979,-3.696 -2.822,-5.596 v 0 l -1.067,-2.93 c -0.315,-0.988 -0.569,-1.995 -0.843,-2.987 v 0 C 0.814,165.095 0.644,164.074 0.45,163.069 v 0 C 0.306,162.05 0.169,161.035 0.096,160.016 v 0 c -0.14,-2.036 -0.155,-4.085 0.154,-6.084 v 0 c 0.908,3.919 2.257,7.595 3.941,11.058 v 0 c 1.659,3.468 3.669,6.706 6.007,9.637 v 0 l 0.85,1.114 c 0.294,0.364 0.626,0.698 0.936,1.047 v 0 c 0.633,0.687 1.227,1.403 1.863,2.081 v 0 c 0.678,0.641 1.362,1.275 2.022,1.926 v 0 c 0.338,0.318 0.651,0.661 1.008,0.959 v 0 l 1.087,0.876 c 0.727,0.58 1.436,1.178 2.147,1.772 v 0 l 2.304,1.582 c 1.478,1.13 3.136,2.011 4.752,2.949 v 0 l 1.204,0.719 1.306,0.717 2.631,1.434 c 1.742,0.979 3.477,1.993 5.201,3.011 v 0 c 3.426,2.108 6.824,4.288 10.068,6.776 v 0 c 3.209,2.516 6.406,5.238 8.849,8.775 v 0 c 1.23,1.729 2.207,3.717 2.689,5.785 v 0 c 0.505,2.064 0.552,4.148 0.284,6.144 v 0 c -0.485,-1.961 -1.109,-3.832 -2.039,-5.466"/></clipPath><linearGradient id="linearGradient248" spreadMethod="pad" gradientTransform="matrix(59.560547,0,0,-59.560547,0,188.11328)" gradientUnits="userSpaceOnUse" y2="0" x2="1" y1="0" x1="0"><stop id="stop242" offset="0" style="stop-opacity:1;stop-color:#ee1b48"/><stop id="stop244" offset="0.21681038" style="stop-opacity:1;stop-color:#ee1b48"/><stop id="stop246" offset="1" style="stop-opacity:1;stop-color:#861b48"/></linearGradient><clipPath id="clipPath258" clipPathUnits="userSpaceOnUse"><path id="path256" d="m 371.268,212.586 c 2.778,-2.908 5.457,-5.885 7.928,-9.003 v 0 c 0.624,-0.775 1.252,-1.546 1.828,-2.35 v 0 c 0.574,-0.8 1.22,-1.582 1.736,-2.393 v 0 l 1.565,-2.417 c 0.496,-0.821 0.905,-1.697 1.365,-2.541 v 0 c 0.487,-0.831 0.84,-1.732 1.222,-2.618 v 0 c 0.382,-0.886 0.783,-1.765 1.059,-2.696 v 0 c 0.301,-0.92 0.662,-1.821 0.919,-2.756 v 0 l 0.735,-2.82 c 0.856,-3.797 1.287,-7.695 1.355,-11.618 v 0 c 0.029,-3.921 -0.372,-7.877 -1.393,-11.694 v 0 c -0.98,-3.828 -2.577,-7.539 -5.151,-10.757 v 0 c 3.348,2.448 5.726,6.13 7.403,9.983 v 0 c 0.369,0.983 0.789,1.965 1.1,2.975 v 0 l 0.866,3.056 c 0.219,1.034 0.402,2.077 0.594,3.122 v 0 c 0.161,1.046 0.239,2.102 0.361,3.158 v 0 c 0.11,1.25 0.165,2.506 0.168,3.762 v 0 0.253 c -0.008,2.908 -0.29,5.821 -0.801,8.697 v 0 c -0.78,4.203 -2.2,8.293 -4.116,12.147 v 0 c -0.521,0.944 -0.993,1.914 -1.558,2.832 v 0 l -1.795,2.698 c -0.607,0.892 -1.287,1.668 -1.927,2.508 v 0 c -0.637,0.835 -1.315,1.632 -2.014,2.409 v 0 c -2.743,3.159 -5.697,6.106 -8.854,8.796 v 0 c -6.266,5.419 -13.088,10.17 -20.496,13.763 v 0 c 6.297,-5.266 12.297,-10.725 17.901,-16.496"/></clipPath><linearGradient id="linearGradient270" spreadMethod="pad" gradientTransform="matrix(41.561523,0,0,-41.561523,353.3667,189.00195)" gradientUnits="userSpaceOnUse" y2="0" x2="1" y1="0" x1="0"><stop id="stop264" offset="0" style="stop-opacity:1;stop-color:#ee1b48"/><stop id="stop266" offset="0.21681038" style="stop-opacity:1;stop-color:#ee1b48"/><stop id="stop268" offset="1" style="stop-opacity:1;stop-color:#861b48"/></linearGradient></defs><g id="el_8Lij44SUTa"><g id="el_ujOl-70pEr"><g id="el_ZfrS66oWZp"><g id="el_VrztRrjK1g"><g id="el_rgklOBo46f"><path id="el_Ow6EGcQzNI" d="m 158.921,295.366 c -3.761,-6.612 -7.366,-15.134 -16.621,-13.139 v 0 c -11.859,2.556 -22.433,10.126 -34.524,11.119 v 0 C 87.955,294.972 75.188,280.228 69.604,262.724 v 0 c -5.429,-17.021 4.444,-40.787 -8.247,-55.425 v 0 C 49.531,193.658 29.607,188.265 17.295,173.971 v 0 C -15.464,135.941 12.896,79.535 48.447,54.727 v 0 C 63.223,44.416 82.336,38.876 100.721,41.673 v 0 c 19.119,2.909 36.013,12.865 54.249,18.667 v 0 c 19.456,6.188 39.431,2.211 58.25,-4.047 v 0 c 26.401,-8.778 56.529,-13.156 83.694,-5.219 v 0 c 13.249,3.871 25.417,10.916 34.655,21.262 v 0 c 4.521,5.062 10.03,11.945 12.206,18.46 v 0 c 0.493,1.479 0.813,3.015 1.014,4.596 v 0 c 1.127,8.863 -0.687,19.789 3.141,28.462 v 0 c 5.091,11.538 19.491,14.631 27.072,24.272 v 0 c 10.714,13.628 12.432,30.53 4.489,46.022 v 0 c -8.667,16.905 -25.284,22.381 -35.505,36.804 v 0 c -5.646,7.969 -4.606,17.853 -7.333,26.87 v 0 c -5.182,17.131 -17.946,30.537 -34.906,36.319 v 0 c -8.465,2.886 -17.721,3.901 -26.637,3.406 v 0 c -11.64,-0.647 -23.414,-6.057 -35.071,-2.65 v 0 c -15.753,4.603 -24.061,20.262 -41.603,21.482 v 0 c -0.926,0.064 -1.853,0.096 -2.779,0.096 v 0 c -14.826,0 -29.367,-8.155 -36.736,-21.109"/></g></g></g></g><g id="el_h7xzBK2hVi"><g id="el_VadaQYFAbS"><g id="el_ZLXhIYQoaL"><g id="el___jv38h5ap"><path id="el_NW_VgNLD13" d="m 186.406,315.637 c -7.914,-1.309 -15.267,-4.836 -21.072,-10.398 v 0 c -5.593,-5.357 -9.146,-20.799 -15.75,-23.04 v 0 c -2.329,-0.79 -4.881,-0.49 -7.284,0.028 v 0 c -11.859,2.556 -22.433,10.126 -34.524,11.119 v 0 C 87.955,294.972 75.188,280.228 69.604,262.724 v 0 c -5.429,-17.021 4.444,-40.787 -8.247,-55.425 v 0 C 49.531,193.658 29.607,188.265 17.295,173.971 v 0 C -15.464,135.941 12.896,79.535 48.447,54.727 v 0 C 63.223,44.416 82.336,38.876 100.721,41.673 v 0 c 19.119,2.909 36.013,12.865 54.249,18.667 v 0 c 19.456,6.188 39.431,2.211 58.25,-4.047 v 0 c 26.401,-8.778 56.529,-13.156 83.694,-5.219 v 0 c 13.249,3.871 25.417,10.916 34.655,21.262 v 0 c 4.521,5.062 10.03,11.945 12.206,18.46 v 0 c 0.493,1.479 0.813,3.015 1.014,4.596 v 0 c 1.127,8.863 -0.687,19.789 3.141,28.462 v 0 c 5.091,11.538 19.491,14.631 27.072,24.272 v 0 c 10.714,13.628 12.432,30.53 4.489,46.022 v 0 c -8.667,16.905 -25.284,22.381 -35.505,36.804 v 0 c -5.646,7.969 -4.606,17.853 -7.333,26.87 v 0 c -8.832,29.195 -36.013,42.782 -65.53,39.154 v 0 c -8.637,-1.062 -17.198,-3.656 -25.872,-2.961 v 0 c -12.778,1.022 -18.331,9.194 -27.909,15.815 v 0 c -6.491,4.486 -14.862,6.457 -22.946,6.457 v 0 c -2.724,0 -5.414,-0.223 -7.99,-0.65"/></g></g></g></g><g id="el_tnS1HpoKQi"><g id="el_jlDWDw0W3g"><g id="el_yxUvhHPFzZ"><g id="el_auCEAAjnPf"><path id="el_mmotT2-VdBd" d="M 204.051,160.468 C 170.24,130.241 143.447,135.374 114.102,149.631 v 0 C 84.758,163.89 68.171,123.397 43.929,122.256 v 0 c -16.213,-0.763 -26.725,7.145 -40.684,12.469 v 0 -7.454 C 6.264,98.88 25.911,70.453 48.447,54.727 v 0 C 63.223,44.416 82.336,38.876 100.721,41.673 v 0 c 19.119,2.909 36.013,12.865 54.249,18.667 v 0 c 19.456,6.188 39.431,2.211 58.25,-4.047 v 0 c 26.401,-8.778 56.529,-13.156 83.694,-5.219 v 0 c 13.249,3.871 25.417,10.916 34.655,21.262 v 0 c 4.521,5.062 10.03,11.945 12.206,18.46 v 0 c 0.493,1.479 0.813,3.015 1.014,4.596 v 0 c 1.127,8.863 -0.687,19.789 3.141,28.462 v 0 c 4.125,9.349 14.36,13.153 22.129,19.389 v 0 c -21.718,-0.731 -64.058,-0.396 -79.888,12.092 v 0 c -13.247,10.449 -29.819,21.324 -48.419,21.322 v 0 c -11.856,-0.002 -24.54,-4.422 -37.701,-16.189"/></g></g></g></g><g id="el_yqmOGb6zvz4"><g id="el_iByUoUO_GWy"><g id="el_F8AbVb9MYxd"><g id="el__-K43b0ZfBO"><path id="el_EV8bI3WkMcm" d="m 311.8,191.449 c -16.742,-11.324 -29.377,-30.707 -39.908,-47.254 v 0 c -7.266,-11.418 -14.796,-24.378 -29.005,-26.972 v 0 c -19.243,-3.511 -40.083,13.036 -59.538,15.057 v 0 c -20.971,2.18 -42.859,-2.288 -60.185,-15.057 v 0 C 93.766,95.557 86.896,79.122 44.071,76.285 v 0 C 37.3,75.837 30.396,76.502 24.014,78.425 v 0 C 31.151,69.077 39.577,60.917 48.447,54.727 v 0 C 63.223,44.416 82.336,38.876 100.721,41.673 v 0 c 19.119,2.909 36.013,12.865 54.249,18.667 v 0 c 19.456,6.188 39.431,2.211 58.25,-4.047 v 0 c 26.401,-8.778 56.529,-13.156 83.694,-5.219 v 0 c 13.249,3.871 25.417,10.916 34.655,21.262 v 0 c 4.521,5.062 10.03,11.945 12.206,18.46 v 0 c 0.493,1.479 0.813,3.015 1.014,4.596 v 0 c 1.127,8.863 -0.687,19.789 3.141,28.462 v 0 c 5.091,11.538 19.491,14.631 27.072,24.272 v 0 c 4.428,5.633 7.32,11.826 8.627,18.247 v 0 16.053 c -0.113,0.566 -0.238,1.13 -0.376,1.695 v 0 c -10.592,9.869 -23.933,18.177 -39.746,18.178 v 0 c -9.666,0 -20.255,-3.103 -31.707,-10.85"/></g></g></g></g><g id="el_Gy6qkcz7DQ7"><g clip-path="url(#clipPath106)" id="el_KrEHNh5oOBf"><g id="el_srVlbKtFb7T"><g id="el_nOp1QYotSzQ"><path id="el_-wqGZ9Ow-Gs" d="m 287.471,127.343 c -5.964,-6.993 -15.066,-19.836 -24.153,-21.63 v 0 c -11.839,-2.336 -30.423,10.085 -42.13,13.329 v 0 c -4.473,1.239 -9.166,2.357 -13.653,1.174 v 0 C 189.752,115.523 184.303,89.135 163.592,88.601 v 0 c -15.86,-0.41 -29.841,7.908 -45.164,10.782 v 0 C 104.396,102.017 93.981,92.795 83.316,84.255 v 0 C 67.529,71.614 47.468,70.952 29.022,75.097 v 0 c -0.934,0.21 -1.907,0.431 -2.915,0.666 v 0 c 6.669,-8.238 14.32,-15.44 22.34,-21.036 v 0 C 63.223,44.416 82.336,38.876 100.721,41.673 v 0 c 19.119,2.909 36.013,12.865 54.249,18.667 v 0 c 19.456,6.188 39.431,2.211 58.25,-4.047 v 0 c 26.401,-8.778 56.529,-13.156 83.694,-5.219 v 0 c 13.249,3.871 25.417,10.916 34.655,21.262 v 0 c 4.521,5.062 10.03,11.945 12.206,18.46 v 0 c 0.493,1.479 0.813,3.015 1.014,4.596 v 0 c 0.602,4.731 0.365,10.049 0.596,15.298 v 0 c -7.01,7.863 -11.275,18.107 -20.733,22.874 v 0 c -5.154,2.598 -10.494,3.957 -15.669,3.957 v 0 c -7.998,-10e-4 -15.601,-3.246 -21.512,-10.178"/></g></g></g></g><g id="el_Oe6L1jZUvfv"><g clip-path="url(#clipPath128)" id="el_p6NqOdLV6Ev"><g id="el_7cSbaBMuTDK"><g id="el_FGu3QUnDNZV"><path id="el_YkEzQKfMPYF" d="M 162.849,85.757 C 118.831,57.666 35.785,89.895 10.638,100.782 v 0 C 18.951,82.202 33.021,65.491 48.447,54.727 v 0 C 63.223,44.416 82.336,38.876 100.721,41.673 v 0 c 19.119,2.909 36.013,12.865 54.249,18.667 v 0 c 19.456,6.188 39.431,2.211 58.25,-4.047 v 0 c 26.401,-8.778 56.529,-13.156 83.694,-5.219 v 0 c 13.249,3.871 25.417,10.916 34.655,21.262 v 0 c 1.522,1.704 3.156,3.615 4.738,5.649 v 0 c -10.521,1.384 -21.725,3.776 -32.386,7.772 v 0 c -21.67,8.124 -48.903,18.358 -78.385,18.359 v 0 C 205.344,104.118 184.1,99.32 162.849,85.757"/></g></g></g></g><g id="el_fUNWVEcgZXV"><g clip-path="url(#clipPath150)" id="el_fFI50_Xvn7u"><g id="el__Vp7dTgczZA"><g id="el_SKtrAIFPQ2g"><path id="el_OjFRhX5ieNA" d="M 16.408,89.678 C 24.749,75.633 36.17,63.294 48.447,54.727 v 0 C 63.223,44.416 82.336,38.876 100.721,41.673 v 0 c 19.119,2.909 36.013,12.865 54.249,18.667 v 0 c 19.456,6.188 39.431,2.211 58.25,-4.047 v 0 c 18.182,-6.045 38.134,-10.003 57.665,-9.29 v 0 C 223.716,67.105 147.772,92.151 62.217,92.152 v 0 C 47.208,92.153 31.905,91.382 16.408,89.678"/></g></g></g></g><g id="el_56H-RF0w2bF"><g clip-path="url(#clipPath172)" id="el_OlHBtjsj6It"><g id="el_HzFV5CbBgkU"><g id="el_VmTWqahD3I3"><path id="el_d_Cewi3QlS1" d="m 180.606,322.654 c -3.397,-0.774 -6.641,-2.133 -9.77,-3.723 v 0 c -3.095,-1.649 -6.107,-3.547 -8.822,-5.862 v 0 c -2.718,-2.303 -5.222,-4.917 -7.346,-7.858 v 0 c -0.539,-0.728 -0.993,-1.52 -1.487,-2.283 v 0 l -0.723,-1.156 -0.623,-1.217 -1.193,-2.383 -0.486,-0.947 c -0.171,-0.305 -0.389,-0.561 -0.574,-0.848 v 0 c -1.561,-2.183 -4,-3.341 -7.008,-3.413 v 0 c -1.481,-0.065 -3.034,0.092 -4.602,0.356 v 0 c -1.567,0.303 -3.148,0.704 -4.723,1.188 v 0 c -3.142,1.006 -6.282,2.253 -9.36,3.689 v 0 c -3.102,1.4 -6.145,2.971 -9.22,4.578 v 0 c 4.965,-4.86 10.719,-8.925 17.245,-11.837 v 0 c 3.286,-1.396 6.821,-2.52 10.739,-2.571 v 0 c 1.943,-0.028 2.065,-0.585 4.013,0.287 v 0 c 1.944,0.866 5.6,3.185 6.827,4.861 v 0 c 0.285,0.43 0.604,0.852 0.849,1.295 v 0 l 0.678,1.35 1.082,2.239 0.511,1.093 0.609,1.047 c 0.418,0.692 0.797,1.406 1.236,2.088 v 0 c 1.765,2.725 3.858,5.258 6.139,7.654 v 0 c 2.289,2.392 4.815,4.609 7.506,6.649 v 0 c 2.671,2.083 5.516,3.961 8.503,5.724 z"/></g></g></g></g><g id="el_aC8_zYzXkTM"><g clip-path="url(#clipPath194)" id="el_2R1EGTJVGXv"><g id="el_xkGjfLQ59ez"><g id="el_oqiHlkxGEYc_an_8fQtmwguJ" data-animator-group="true" data-animator-type="0"><path id="el_oqiHlkxGEYc" d="m 0,0 c 0.069,1.536 -0.501,3.196 -1.801,4.019 -1.067,0.676 -2.417,0.684 -3.677,0.588 -1.84,-0.139 -3.668,-0.456 -5.448,-0.94 -1.983,-0.541 -4.122,-1.288 -6.023,-0.507 -1.038,0.427 -1.856,1.268 -2.492,2.193 -1.227,1.785 -1.868,3.912 -3.012,5.751 -1.144,1.84 -3.082,3.468 -5.237,3.245 -1.988,-0.205 -3.46,-1.872 -4.723,-3.42 -1.288,-1.579 -2.575,-3.158 -3.863,-4.738 -0.759,-0.93 -1.882,-1.963 -2.99,-1.499 -0.506,0.213 -0.841,0.7 -1.099,1.186 -1.185,2.236 -0.78,4.051 -2.873,5.965 -0.793,0.726 -1.793,1.34 -2.867,1.283 -2.758,-0.144 -2.845,-2.828 -4.331,-4.293 -1.221,-1.205 -2.917,-0.606 -4.274,0.074 -1,0.502 -1.979,1.126 -3.09,1.261 -2.937,0.356 -4.143,-1.61 -5.6,-3.512 -1.368,-1.784 -3.689,-2.452 -5.67,-3.294 -4.456,-1.891 -9.898,-0.945 -14.557,-2.261 -4.202,-1.187 -8.335,-5.514 -12.731,-5.514 h 1.326 l 31.365,0.006 C -42.864,-4.409 -22.062,-4.411 -1.26,-4.413 -0.662,-2.978 -0.068,-1.528 0,0"/></g></g><g id="el_0FXVHxZwuc5"><g id="el_7hYgHd7xjb6_an_yXuUyjEqq" data-animator-group="true" data-animator-type="0"><path id="el_7hYgHd7xjb6" d="M 0,0 C 0.055,1.216 -0.396,2.528 -1.424,3.179 -2.269,3.714 -3.336,3.72 -4.333,3.645 -5.789,3.534 -7.234,3.284 -8.643,2.899 c -1.569,-0.426 -3.26,-1.017 -4.764,-0.4 -0.821,0.338 -1.468,1.004 -1.971,1.734 -0.972,1.413 -1.477,3.096 -2.383,4.551 -0.905,1.455 -2.438,2.742 -4.142,2.567 -1.573,-0.163 -2.738,-1.481 -3.737,-2.706 l -3.055,-3.748 c -0.6,-0.735 -1.49,-1.552 -2.365,-1.185 -0.401,0.168 -0.666,0.553 -0.87,0.937 -0.937,1.77 -0.617,3.205 -2.272,4.719 -0.628,0.574 -1.419,1.06 -2.269,1.016 -2.18,-0.114 -2.25,-2.238 -3.425,-3.397 -0.966,-0.953 -2.307,-0.48 -3.381,0.059 -0.791,0.397 -1.565,0.891 -2.444,0.997 -2.323,0.282 -3.277,-1.274 -4.429,-2.777 -1.082,-1.412 -2.919,-1.941 -4.486,-2.606 -3.525,-1.497 -7.829,-0.749 -11.514,-1.79 -3.325,-0.937 -6.594,-4.361 -10.072,-4.361 h 1.049 l 24.811,0.005 c 16.455,-10e-4 32.91,-0.003 49.365,-0.005 C -0.524,-2.356 -0.054,-1.21 0,0"/></g></g><g id="el_CqoGBz-cr7z"><g id="el_FiAEsbNt8da_an_-A9wG5Ka5" data-animator-group="true" data-animator-type="0"><path id="el_FiAEsbNt8da" d="M 0,0 C 0.061,1.362 -0.445,2.834 -1.597,3.563 -2.544,4.164 -3.741,4.17 -4.858,4.086 -6.491,3.961 -8.111,3.682 -9.69,3.251 c -1.759,-0.48 -3.656,-1.142 -5.342,-0.448 -0.92,0.377 -1.646,1.123 -2.21,1.943 -1.088,1.584 -1.656,3.47 -2.671,5.102 -1.014,1.631 -2.733,3.075 -4.644,2.877 -1.763,-0.182 -3.069,-1.661 -4.189,-3.034 -1.142,-1.4 -2.284,-2.8 -3.425,-4.201 -0.673,-0.824 -1.67,-1.741 -2.652,-1.329 -0.449,0.189 -0.747,0.62 -0.975,1.052 -1.051,1.982 -0.692,3.592 -2.547,5.29 -0.704,0.643 -1.591,1.187 -2.544,1.138 -2.445,-0.128 -2.523,-2.509 -3.84,-3.808 -1.083,-1.068 -2.587,-0.538 -3.791,0.066 -0.886,0.446 -1.755,0.998 -2.739,1.119 -2.606,0.316 -3.675,-1.43 -4.967,-3.116 -1.213,-1.582 -3.272,-2.173 -5.028,-2.92 -3.953,-1.677 -8.778,-0.839 -12.911,-2.006 -3.725,-1.052 -7.391,-4.89 -11.29,-4.89 h 1.176 l 27.817,0.005 C -38.014,-3.911 -19.566,-3.912 -1.118,-3.914 -0.588,-2.642 -0.061,-1.356 0,0"/></g></g></g></g><g id="el_n2q8hmTGFAh"><g clip-path="url(#clipPath214)" id="el_j4jzwvcxiS_"><g id="el_ay7bdU_ASQI"><g id="el_Qh-Od9R-qvc"><path id="el_jmHHz52rl0M" d="m 313.69,51.259 c -0.77,-0.461 -1.568,-0.872 -2.372,-1.268 v 0 l -2.379,-1.236 c -1.637,-0.719 -3.202,-1.569 -4.861,-2.211 v 0 c -3.251,-1.427 -6.59,-2.621 -9.975,-3.635 v 0 c -6.76,-2.079 -13.773,-3.277 -20.914,-3.766 v 0 c -7.152,-0.46 -14.423,-0.264 -21.85,0.825 v 0 c 1.611,-0.993 3.347,-1.774 5.108,-2.477 v 0 c 1.763,-0.707 3.576,-1.286 5.414,-1.792 v 0 c 3.68,-0.995 7.476,-1.598 11.306,-1.876 v 0 c 7.658,-0.512 15.488,0.318 22.89,2.588 v 0 c 0.93,0.268 1.851,0.565 2.757,0.904 v 0 c 0.908,0.335 1.829,0.628 2.723,0.999 v 0 c 1.777,0.76 3.563,1.497 5.269,2.399 v 0 c 1.738,0.838 3.387,1.84 5.043,2.813 v 0 c 1.603,1.061 3.236,2.07 4.744,3.254 v 0 c 6.115,4.605 11.462,10.123 15.55,16.459 v 0 C 326.011,58.86 319.987,54.74 313.69,51.259"/></g></g></g></g><g id="el_Vi3KyKdeLrB"><g clip-path="url(#clipPath236)" id="el_3NRe3nQ1CSh"><g id="el_sJTyoqDYo08"><g id="el_K1dEwT-LGDP"><path id="el_iy3LcaKlyNC" d="m 57.36,216.828 c -0.931,-1.634 -2.09,-3.064 -3.48,-4.307 v 0 c -2.695,-2.535 -5.975,-4.549 -9.287,-6.507 v 0 c -3.346,-1.928 -6.795,-3.759 -10.249,-5.593 v 0 l -5.222,-2.72 -2.612,-1.372 -1.312,-0.696 -1.361,-0.787 c -1.798,-1.079 -3.636,-2.084 -5.293,-3.401 v 0 l -2.52,-1.896 -2.34,-2.131 -1.157,-1.075 c -0.379,-0.365 -0.715,-0.777 -1.074,-1.163 v 0 c -0.71,-0.782 -1.396,-1.582 -2.088,-2.372 v 0 c -0.644,-0.835 -1.257,-1.695 -1.872,-2.547 v 0 c -0.298,-0.433 -0.618,-0.85 -0.897,-1.294 v 0 l -0.803,-1.358 c -1.111,-1.781 -1.979,-3.696 -2.822,-5.596 v 0 l -1.067,-2.93 c -0.315,-0.988 -0.569,-1.995 -0.843,-2.987 v 0 C 0.814,165.095 0.644,164.074 0.45,163.069 v 0 C 0.306,162.05 0.169,161.035 0.096,160.016 v 0 c -0.14,-2.036 -0.155,-4.085 0.154,-6.084 v 0 c 0.908,3.919 2.257,7.595 3.941,11.058 v 0 c 1.659,3.468 3.669,6.706 6.007,9.637 v 0 l 0.85,1.114 c 0.294,0.364 0.626,0.698 0.936,1.047 v 0 c 0.633,0.687 1.227,1.403 1.863,2.081 v 0 c 0.678,0.641 1.362,1.275 2.022,1.926 v 0 c 0.338,0.318 0.651,0.661 1.008,0.959 v 0 l 1.087,0.876 c 0.727,0.58 1.436,1.178 2.147,1.772 v 0 l 2.304,1.582 c 1.478,1.13 3.136,2.011 4.752,2.949 v 0 l 1.204,0.719 1.306,0.717 2.631,1.434 c 1.742,0.979 3.477,1.993 5.201,3.011 v 0 c 3.426,2.108 6.824,4.288 10.068,6.776 v 0 c 3.209,2.516 6.406,5.238 8.849,8.775 v 0 c 1.23,1.729 2.207,3.717 2.689,5.785 v 0 c 0.505,2.064 0.552,4.148 0.284,6.144 v 0 c -0.485,-1.961 -1.109,-3.832 -2.039,-5.466"/></g></g></g></g><g id="el_YqV-8iVh2eN"><g clip-path="url(#clipPath258)" id="el_5C_E4Xqm5Z9"><g id="el_xCZcRbSb8mz"><g id="el_rOdsUbaUwqy"><path id="el_cizvlEGY8nn" d="m 371.268,212.586 c 2.778,-2.908 5.457,-5.885 7.928,-9.003 v 0 c 0.624,-0.775 1.252,-1.546 1.828,-2.35 v 0 c 0.574,-0.8 1.22,-1.582 1.736,-2.393 v 0 l 1.565,-2.417 c 0.496,-0.821 0.905,-1.697 1.365,-2.541 v 0 c 0.487,-0.831 0.84,-1.732 1.222,-2.618 v 0 c 0.382,-0.886 0.783,-1.765 1.059,-2.696 v 0 c 0.301,-0.92 0.662,-1.821 0.919,-2.756 v 0 l 0.735,-2.82 c 0.856,-3.797 1.287,-7.695 1.355,-11.618 v 0 c 0.029,-3.921 -0.372,-7.877 -1.393,-11.694 v 0 c -0.98,-3.828 -2.577,-7.539 -5.151,-10.757 v 0 c 3.348,2.448 5.726,6.13 7.403,9.983 v 0 c 0.369,0.983 0.789,1.965 1.1,2.975 v 0 l 0.866,3.056 c 0.219,1.034 0.402,2.077 0.594,3.122 v 0 c 0.161,1.046 0.239,2.102 0.361,3.158 v 0 c 0.11,1.25 0.165,2.506 0.168,3.762 v 0 0.253 c -0.008,2.908 -0.29,5.821 -0.801,8.697 v 0 c -0.78,4.203 -2.2,8.293 -4.116,12.147 v 0 c -0.521,0.944 -0.993,1.914 -1.558,2.832 v 0 l -1.795,2.698 c -0.607,0.892 -1.287,1.668 -1.927,2.508 v 0 c -0.637,0.835 -1.315,1.632 -2.014,2.409 v 0 c -2.743,3.159 -5.697,6.106 -8.854,8.796 v 0 c -6.266,5.419 -13.088,10.17 -20.496,13.763 v 0 c 6.297,-5.266 12.297,-10.725 17.901,-16.496"/></g></g></g></g></g></svg>