<?xml version="1.0" encoding="UTF-8" standalone="no"?>
<svg
   xmlns:dc="http://purl.org/dc/elements/1.1/"
   xmlns:cc="http://creativecommons.org/ns#"
   xmlns:rdf="http://www.w3.org/1999/02/22-rdf-syntax-ns#"
   xmlns:svg="http://www.w3.org/2000/svg"
   xmlns="http://www.w3.org/2000/svg"
   viewBox="0 0 151.75333 258.92401"
   height="258.92401"
   width="151.75333"
   xml:space="preserve"
   id="svg2"
   version="1.1"><metadata
     id="metadata8"><rdf:RDF><cc:Work
         rdf:about=""><dc:format>image/svg+xml</dc:format><dc:type
           rdf:resource="http://purl.org/dc/dcmitype/StillImage" /></cc:Work></rdf:RDF></metadata><defs
     id="defs6"><clipPath
       id="clipPath18"
       clipPathUnits="userSpaceOnUse"><path
         id="path16"
         d="m 15.897,150.973 c -0.739,-0.359 -1.367,-0.995 -1.915,-1.767 v 0 c -1.162,-1.639 -1.964,-3.89 -2.703,-5.406 v 0 c -1.517,-3.114 -2.977,-6.256 -4.336,-9.442 v 0 c -1.01,-2.363 -1.984,-4.744 -2.808,-7.179 v 0 C 3.531,125.387 2.896,123.234 3.429,121.35 v 0 c 0.523,-1.848 2.283,-2.562 4.07,-2.265 v 0 c 0.791,0.132 1.523,0.336 2.066,0.787 v 0 c 1.068,0.886 3.537,5.349 4.803,8.036 v 0 c 1.125,2.39 2.261,4.774 3.391,7.163 v 0 c 0.798,1.687 1.595,3.374 2.375,5.071 v 0 c 1.59,3.461 3.997,8.523 -0.484,11.022 v 0 c -0.402,0.225 -0.918,0.317 -1.455,0.317 v 0 c -0.825,0 -1.702,-0.218 -2.298,-0.508" /></clipPath><linearGradient
       id="linearGradient30"
       spreadMethod="pad"
       gradientTransform="matrix(23.758345,5.7653179,5.7653179,-23.758345,0.7416992,132.41113)"
       gradientUnits="userSpaceOnUse"
       y2="0"
       x2="1"
       y1="0"
       x1="0"><stop
         id="stop24"
         offset="0"
         style="stop-opacity:1;stop-color:#ef9367" /><stop
         id="stop26"
         offset="0.86199466"
         style="stop-opacity:1;stop-color:#d8d2b3" /><stop
         id="stop28"
         offset="1"
         style="stop-opacity:1;stop-color:#d8d2b3" /></linearGradient><clipPath
       id="clipPath40"
       clipPathUnits="userSpaceOnUse"><path
         id="path38"
         d="m 29.888,118.071 -4.362,-0.645 -1.068,-0.063 c -0.189,0.086 -0.558,0.255 -1.057,0.485 v 0 c -0.499,-1.502 -0.942,-3.024 -1.292,-4.562 v 0 c 0.4,-0.109 0.788,-0.214 1.199,-0.326 v 0 l 0.008,0.026 7.054,-3.826 c 0,0 6.484,-0.466 7.967,0.77 v 0 c 1.482,1.237 1.186,3.123 1.057,3.341 v 0 c -0.129,0.219 -3.083,0.095 -3.083,0.095 v 0 c -0.577,-0.002 -5.02,2.364 -5.02,2.364 v 0 c 0,0 2.18,1.499 2.795,2.08 v 0 c 0.615,0.581 -0.126,1.471 -0.126,1.471 v 0 z" /></clipPath><linearGradient
       id="linearGradient52"
       spreadMethod="pad"
       gradientTransform="matrix(-21.95723,-17.960104,-17.960104,21.95723,35.673828,117.81836)"
       gradientUnits="userSpaceOnUse"
       y2="0"
       x2="1"
       y1="0"
       x1="0"><stop
         id="stop46"
         offset="0"
         style="stop-opacity:1;stop-color:#d8d2b3" /><stop
         id="stop48"
         offset="0.98746902"
         style="stop-opacity:1;stop-color:#e5af88" /><stop
         id="stop50"
         offset="1"
         style="stop-opacity:1;stop-color:#e5af88" /></linearGradient><clipPath
       id="clipPath62"
       clipPathUnits="userSpaceOnUse"><path
         id="path60"
         d="M 4.755,125.144 C 3.134,124.608 2.59,122.566 2.682,120.861 v 0 c 0.022,-0.405 0.07,-0.82 0.167,-1.217 v 0 c 0.126,-0.514 0.337,-0.999 0.684,-1.397 v 0 c 0.652,-0.75 1.664,-1.057 2.621,-1.323 v 0 c 3.678,-1.022 7.388,-1.932 11.121,-2.727 v 0 c 1.864,-0.398 4.383,-1.019 6.265,-1.332 v 0 l 1.536,4.445 c -5.673,2.429 -11.346,4.858 -17.018,7.288 v 0 c -0.785,0.336 -1.637,0.676 -2.469,0.676 v 0 c -0.281,0 -0.56,-0.039 -0.834,-0.13" /></clipPath><linearGradient
       id="linearGradient74"
       spreadMethod="pad"
       gradientTransform="matrix(-20.276548,-5.2288299,-5.2288299,20.276548,23.983398,121.54492)"
       gradientUnits="userSpaceOnUse"
       y2="0"
       x2="1"
       y1="0"
       x1="0"><stop
         id="stop68"
         offset="0"
         style="stop-opacity:1;stop-color:#d8d2b3" /><stop
         id="stop70"
         offset="0.95626978"
         style="stop-opacity:1;stop-color:#ef9367" /><stop
         id="stop72"
         offset="1"
         style="stop-opacity:1;stop-color:#ef9367" /></linearGradient><clipPath
       id="clipPath84"
       clipPathUnits="userSpaceOnUse"><path
         id="path82"
         d="M 0,194.193 H 113.815 V 0 H 0 Z" /></clipPath><clipPath
       id="clipPath96"
       clipPathUnits="userSpaceOnUse"><path
         id="path94"
         d="m 22.508,121.1 c -1.234,-0.263 -2.402,-0.766 -3.443,-1.477 v 0 C 6.806,111.251 14.07,92.058 17.385,81.242 v 0 c 1.441,-4.697 3.449,-10.309 5.182,-14.907 v 0 c 6.3,-5.489 11.495,-0.272 11.495,-0.272 v 0 c 2.209,8.451 2.56,17.371 2.7,26.066 v 0 c 0.071,4.319 -2.107,20.121 -2.349,24.439 v 0 c -0.266,4.724 -0.944,6.197 -3.349,6.197 v 0 c -1.758,0 -4.438,-0.786 -8.556,-1.665" /></clipPath><linearGradient
       id="linearGradient108"
       spreadMethod="pad"
       gradientTransform="matrix(2.6e-6,58.941406,-58.941406,2.6e-6,24.487793,63.823242)"
       gradientUnits="userSpaceOnUse"
       y2="0"
       x2="1"
       y1="0"
       x1="0"><stop
         id="stop102"
         offset="0"
         style="stop-opacity:1;stop-color:#0e090f" /><stop
         id="stop104"
         offset="0.99616477"
         style="stop-opacity:1;stop-color:#38243d" /><stop
         id="stop106"
         offset="1"
         style="stop-opacity:1;stop-color:#38243d" /></linearGradient><clipPath
       id="clipPath118"
       clipPathUnits="userSpaceOnUse"><path
         id="path116"
         d="M 18.726,13.599 C 18.698,13.38 17.942,11.493 17.852,11.3 v 0 C 17.532,10.625 17.153,9.934 16.997,9.222 v 0 C 16.669,7.741 15.707,5.331 16.378,3.876 v 0 c 0.087,-0.19 0.227,-0.377 0.44,-0.567 v 0 c 0.553,-0.49 5.08,-1.045 6.578,-1.313 v 0 c 1.461,-0.261 2.922,-0.522 4.382,-0.783 v 0 C 34.477,-0.467 38.8,0.089 38.8,0.089 v 0 c 9.942,0.661 9.209,2.771 9.209,2.771 v 0 c -1.069,1.18 -2.064,1.551 -2.46,1.767 v 0 c -0.396,0.216 -8.127,2.2 -8.127,2.2 v 0 c 0,0 -6.679,3.512 -10.373,6.021 v 0 h 0.011 c -0.833,4.587 1.109,12.088 1.109,12.088 v 0 l -8.804,0.677 c 0,0 -0.228,-8.842 -0.639,-12.014" /></clipPath><linearGradient
       id="linearGradient130"
       spreadMethod="pad"
       gradientTransform="matrix(-4.27e-5,25.611597,-25.611597,-4.27e-5,32.083496,9.766e-4)"
       gradientUnits="userSpaceOnUse"
       y2="0"
       x2="1"
       y1="0"
       x1="0"><stop
         id="stop124"
         offset="0"
         style="stop-opacity:1;stop-color:#d8d2b3" /><stop
         id="stop126"
         offset="0.5092145"
         style="stop-opacity:1;stop-color:#d8d2b3" /><stop
         id="stop128"
         offset="1"
         style="stop-opacity:1;stop-color:#ef9367" /></linearGradient><clipPath
       id="clipPath140"
       clipPathUnits="userSpaceOnUse"><path
         id="path138"
         d="m 24.455,10.701 c -2.008,-0.071 -4.426,0.008 -6.623,0.559 v 0 C 17.517,10.598 17.15,9.92 16.997,9.222 v 0 C 16.669,7.741 15.707,5.331 16.378,3.876 v 0 c 0.087,-0.19 0.227,-0.377 0.44,-0.567 v 0 c 0.553,-0.49 5.08,-1.045 6.578,-1.313 v 0 c 1.461,-0.261 2.922,-0.522 4.382,-0.783 v 0 C 34.477,-0.467 38.8,0.089 38.8,0.089 v 0 c 9.942,0.661 9.209,2.771 9.209,2.771 v 0 c -1.069,1.18 -2.064,1.551 -2.46,1.767 v 0 c -0.396,0.216 -8.127,2.2 -8.127,2.2 v 0 c 0,0 -4.754,2.499 -8.458,4.788 v 0 C 27.518,11.028 25.89,10.753 24.455,10.701" /></clipPath><linearGradient
       id="linearGradient152"
       spreadMethod="pad"
       gradientTransform="matrix(-31.30344,-3.3113344,3.3113344,-31.30344,47.503418,7.6796875)"
       gradientUnits="userSpaceOnUse"
       y2="0"
       x2="1"
       y1="0"
       x1="0"><stop
         id="stop146"
         offset="0"
         style="stop-opacity:1;stop-color:#0e090f" /><stop
         id="stop148"
         offset="0.99616477"
         style="stop-opacity:1;stop-color:#38243d" /><stop
         id="stop150"
         offset="1"
         style="stop-opacity:1;stop-color:#38243d" /></linearGradient><clipPath
       id="clipPath162"
       clipPathUnits="userSpaceOnUse"><path
         id="path160"
         d="M 22.972,67.37 C 17.769,54.761 18.332,31.833 19.134,21.356 v 0 l 9.138,-0.417 c 1.721,12.013 5.349,37.438 5.779,41.43 v 0 c 0.152,1.41 0.417,3.19 -0.367,4.467 v 0 c -0.892,1.454 -3.052,1.979 -4.592,2.352 v 0 c -0.492,0.12 -1.118,0.194 -1.785,0.194 v 0 c -1.722,0 -3.711,-0.498 -4.335,-2.012" /></clipPath><linearGradient
       id="linearGradient178"
       spreadMethod="pad"
       gradientTransform="matrix(5.0834017,-48.055523,48.055523,5.0834017,23.932129,69.073242)"
       gradientUnits="userSpaceOnUse"
       y2="0"
       x2="1"
       y1="0"
       x1="0"><stop
         id="stop168"
         offset="0"
         style="stop-opacity:1;stop-color:#0e090f" /><stop
         id="stop170"
         offset="0.76438344"
         style="stop-opacity:1;stop-color:#1d1320" /><stop
         id="stop172"
         offset="0.764865"
         style="stop-opacity:1;stop-color:#1d1320" /><stop
         id="stop174"
         offset="0.9990982"
         style="stop-opacity:1;stop-color:#1d1320" /><stop
         id="stop176"
         offset="1"
         style="stop-opacity:1;stop-color:#1d1320" /></linearGradient><clipPath
       id="clipPath188"
       clipPathUnits="userSpaceOnUse"><path
         id="path186"
         d="m 25.723,110.711 c -0.024,-0.041 -0.054,-0.08 -0.077,-0.121 v 0 l -0.02,0.121 H 12.468 l -0.021,-0.02 c -0.97,-6.53 0.151,-11.14 0.151,-11.14 v 0 C 14.48,91.125 24.904,87.826 28.465,86.934 v 0 c 2.018,-4.112 4.314,-7.927 6.055,-11.019 v 0 c 2.411,-4.281 4.916,-8.522 7.591,-12.644 v 0 c 7.327,-4.016 11.943,1.378 11.943,1.378 v 0 c 0.352,8.727 -1.21,17.516 -2.93,26.04 v 0 c -0.696,3.446 -4.456,13.971 -6.459,20.022 v 0 z" /></clipPath><linearGradient
       id="linearGradient204"
       spreadMethod="pad"
       gradientTransform="matrix(2.6e-6,-59.606487,59.606487,2.6e-6,33.077637,110.71094)"
       gradientUnits="userSpaceOnUse"
       y2="0"
       x2="1"
       y1="0"
       x1="0"><stop
         id="stop194"
         offset="0"
         style="stop-opacity:1;stop-color:#0e090f" /><stop
         id="stop196"
         offset="0.34274633"
         style="stop-opacity:1;stop-color:#38243d" /><stop
         id="stop198"
         offset="0.810811"
         style="stop-opacity:1;stop-color:#38243d" /><stop
         id="stop200"
         offset="0.9974947"
         style="stop-opacity:1;stop-color:#38243d" /><stop
         id="stop202"
         offset="1"
         style="stop-opacity:1;stop-color:#38243d" /></linearGradient><clipPath
       id="clipPath214"
       clipPathUnits="userSpaceOnUse"><path
         id="path212"
         d="m 43.787,23.725 c 0,0 0.742,-8.814 0.683,-12.013 v 0 c -0.005,-0.221 -0.549,-2.18 -0.618,-2.38 v 0 C 43.609,8.626 43.308,7.898 43.23,7.172 v 0 C 43.068,5.664 42.375,3.163 43.202,1.79 v 0 C 43.31,1.611 43.469,1.442 43.701,1.275 v 0 c 0.603,-0.426 5.164,-0.482 6.684,-0.584 v 0 c 1.479,-0.098 2.96,-0.198 4.439,-0.298 v 0 c 6.844,-0.934 11.08,0.091 11.08,0.091 v 0 c 9.809,1.748 8.849,3.765 8.849,3.765 v 0 c -1.191,1.056 -2.222,1.317 -2.639,1.488 v 0 c -0.416,0.171 -8.319,1.296 -8.319,1.296 v 0 c 0,0 -7.024,2.756 -10.97,4.845 v 0 l 0.01,10e-4 c -1.331,4.469 -0.223,12.137 -0.223,12.137 v 0 z" /></clipPath><linearGradient
       id="linearGradient226"
       spreadMethod="pad"
       gradientTransform="matrix(1e-6,24.016602,-24.016602,1e-6,58.791504,0)"
       gradientUnits="userSpaceOnUse"
       y2="0"
       x2="1"
       y1="0"
       x1="0"><stop
         id="stop220"
         offset="0"
         style="stop-opacity:1;stop-color:#d8d2b3" /><stop
         id="stop222"
         offset="0.5092145"
         style="stop-opacity:1;stop-color:#d8d2b3" /><stop
         id="stop224"
         offset="1"
         style="stop-opacity:1;stop-color:#ef9367" /></linearGradient><clipPath
       id="clipPath236"
       clipPathUnits="userSpaceOnUse"><path
         id="path234"
         d="M 0,194.193 H 113.815 V 0 H 0 Z" /></clipPath><clipPath
       id="clipPath248"
       clipPathUnits="userSpaceOnUse"><path
         id="path246"
         d="M 43.852,9.332 C 43.609,8.626 43.308,7.898 43.23,7.172 v 0 C 43.068,5.664 42.375,3.163 43.202,1.79 v 0 C 43.31,1.611 43.469,1.442 43.701,1.275 v 0 c 0.603,-0.426 5.164,-0.482 6.684,-0.584 v 0 c 1.479,-0.098 2.96,-0.198 4.439,-0.298 v 0 c 6.844,-0.934 11.08,0.091 11.08,0.091 v 0 c 9.809,1.748 8.849,3.765 8.849,3.765 v 0 c -1.191,1.056 -2.222,1.317 -2.639,1.488 v 0 c -0.416,0.171 -8.319,1.296 -8.319,1.296 v 0 c 0,0 -3.172,1.244 -6.45,2.694 v 0 C 57.275,9.705 57.204,9.684 57.129,9.666 v 0 C 53.126,8.732 49.06,8.457 45.259,10.27 v 0 c -0.328,0.156 -0.666,0.323 -1.007,0.498 v 0 c -0.161,-0.616 -0.361,-1.32 -0.4,-1.436" /></clipPath><linearGradient
       id="linearGradient260"
       spreadMethod="pad"
       gradientTransform="matrix(-31.975098,0,0,-31.975098,74.778809,5.3837891)"
       gradientUnits="userSpaceOnUse"
       y2="0"
       x2="1"
       y1="0"
       x1="0"><stop
         id="stop254"
         offset="0"
         style="stop-opacity:1;stop-color:#0e090f" /><stop
         id="stop256"
         offset="0.99616477"
         style="stop-opacity:1;stop-color:#38243d" /><stop
         id="stop258"
         offset="1"
         style="stop-opacity:1;stop-color:#38243d" /></linearGradient><clipPath
       id="clipPath270"
       clipPathUnits="userSpaceOnUse"><path
         id="path268"
         d="m 44.986,67.63 c -3.565,-1.705 -3.289,-6.555 -3.622,-9.92 v 0 c -0.332,-3.344 -0.41,-6.711 -0.355,-10.069 v 0 c 0.156,-9.434 1.268,-18.904 3.014,-28.173 v 0 l 9.129,0.588 c 0.394,12.129 1.212,37.799 1.202,41.813 v 0 c -0.006,2.072 -0.411,4.393 -2.371,5.509 v 0 C 50.891,68 49.544,68.315 48.208,68.315 v 0 c -1.136,0 -2.263,-0.227 -3.222,-0.685" /></clipPath><linearGradient
       id="linearGradient282"
       spreadMethod="pad"
       gradientTransform="matrix(2.1e-6,48.84668,-48.84668,2.1e-6,47.67334,19.467773)"
       gradientUnits="userSpaceOnUse"
       y2="0"
       x2="1"
       y1="0"
       x1="0"><stop
         id="stop276"
         offset="0"
         style="stop-opacity:1;stop-color:#0e090f" /><stop
         id="stop278"
         offset="0.99616477"
         style="stop-opacity:1;stop-color:#38243d" /><stop
         id="stop280"
         offset="1"
         style="stop-opacity:1;stop-color:#38243d" /></linearGradient><clipPath
       id="clipPath292"
       clipPathUnits="userSpaceOnUse"><path
         id="path290"
         d="m 41.405,165.412 2.967,-0.738 -1.688,5.884 z" /></clipPath><linearGradient
       id="linearGradient304"
       spreadMethod="pad"
       gradientTransform="matrix(3.1875489,1.8403313,-1.8403313,3.1875489,40.981445,166.14648)"
       gradientUnits="userSpaceOnUse"
       y2="0"
       x2="1"
       y1="0"
       x1="0"><stop
         id="stop298"
         offset="0"
         style="stop-opacity:1;stop-color:#e2b691" /><stop
         id="stop300"
         offset="0.95626978"
         style="stop-opacity:1;stop-color:#ef9367" /><stop
         id="stop302"
         offset="1"
         style="stop-opacity:1;stop-color:#ef9367" /></linearGradient><clipPath
       id="clipPath314"
       clipPathUnits="userSpaceOnUse"><path
         id="path312"
         d="m 25.002,156.549 c 0,0 0.17,-1.23 1.788,-2.598 v 0 c 2.033,-1.719 6.85,-1.311 7.844,-0.185 v 0 c 0,0 -0.325,9.673 -0.357,11.318 v 0 l -8.682,5.592 z" /></clipPath><linearGradient
       id="linearGradient326"
       spreadMethod="pad"
       gradientTransform="matrix(10.781341,6.224607,-6.224607,10.781341,23.711914,158.48437)"
       gradientUnits="userSpaceOnUse"
       y2="0"
       x2="1"
       y1="0"
       x1="0"><stop
         id="stop320"
         offset="0"
         style="stop-opacity:1;stop-color:#ef9367" /><stop
         id="stop322"
         offset="0.86199466"
         style="stop-opacity:1;stop-color:#d8d2b3" /><stop
         id="stop324"
         offset="1"
         style="stop-opacity:1;stop-color:#d8d2b3" /></linearGradient><clipPath
       id="clipPath336"
       clipPathUnits="userSpaceOnUse"><path
         id="path334"
         d="m 25.78,176.345 -0.809,-7.682 -0.226,-2.161 c 4.898,-8.332 13.011,-9.213 15.641,-6.431 v 0 c 2.63,2.781 3.813,18.669 3.813,18.669 v 0 l -17.89,2.642 z" /></clipPath><linearGradient
       id="linearGradient348"
       spreadMethod="pad"
       gradientTransform="matrix(19.889831,11.483395,-11.483395,19.889831,25.104492,165.87891)"
       gradientUnits="userSpaceOnUse"
       y2="0"
       x2="1"
       y1="0"
       x1="0"><stop
         id="stop342"
         offset="0"
         style="stop-opacity:1;stop-color:#e5af88" /><stop
         id="stop344"
         offset="0.86199466"
         style="stop-opacity:1;stop-color:#d8d2b3" /><stop
         id="stop346"
         offset="1"
         style="stop-opacity:1;stop-color:#d8d2b3" /></linearGradient><clipPath
       id="clipPath358"
       clipPathUnits="userSpaceOnUse"><path
         id="path356"
         d="m 25.002,183.726 c 0,0 -5.757,-0.585 -4.505,-8.438 v 0 c 1.254,-7.852 3.426,-14.452 5.347,-15.036 v 0 l 2.673,-0.935 c 0,0 6.182,13.047 8.103,14.134 v 0 c 1.922,1.086 8.354,-0.444 11.779,4.678 v 0 c 3.381,5.055 1.337,7.685 0,7.936 v 0 c -0.531,0.099 -1.244,-0.623 -2.19,-1.345 v 0 c -1.437,-1.096 -3.408,-2.192 -6.08,-0.41 v 0 c -2.155,1.437 -5.382,2.188 -8.318,2.188 v 0 c -3.209,0 -6.071,-0.896 -6.809,-2.772" /></clipPath><linearGradient
       id="linearGradient374"
       spreadMethod="pad"
       gradientTransform="matrix(29.924805,0,0,-29.924805,20.319336,172.90771)"
       gradientUnits="userSpaceOnUse"
       y2="0"
       x2="1"
       y1="0"
       x1="0"><stop
         id="stop364"
         offset="0"
         style="stop-opacity:1;stop-color:#0e090f" /><stop
         id="stop366"
         offset="0.34274633"
         style="stop-opacity:1;stop-color:#38243d" /><stop
         id="stop368"
         offset="0.810811"
         style="stop-opacity:1;stop-color:#38243d" /><stop
         id="stop370"
         offset="0.9974947"
         style="stop-opacity:1;stop-color:#38243d" /><stop
         id="stop372"
         offset="1"
         style="stop-opacity:1;stop-color:#38243d" /></linearGradient><clipPath
       id="clipPath384"
       clipPathUnits="userSpaceOnUse"><path
         id="path382"
         d="m 32.27,173.514 c -1.983,-1.593 -1.898,-6.197 1.933,-8.735 v 0 l 1.568,7.555 c -0.145,0.83 -1.198,1.608 -2.263,1.608 v 0 c -0.43,0 -0.862,-0.127 -1.238,-0.428" /></clipPath><linearGradient
       id="linearGradient396"
       spreadMethod="pad"
       gradientTransform="matrix(5.2113762,3.0087879,-3.0087879,5.2113762,31.370117,168.08154)"
       gradientUnits="userSpaceOnUse"
       y2="0"
       x2="1"
       y1="0"
       x1="0"><stop
         id="stop390"
         offset="0"
         style="stop-opacity:1;stop-color:#e6ab83" /><stop
         id="stop392"
         offset="0.86199466"
         style="stop-opacity:1;stop-color:#d8d2b3" /><stop
         id="stop394"
         offset="1"
         style="stop-opacity:1;stop-color:#d8d2b3" /></linearGradient><clipPath
       id="clipPath406"
       clipPathUnits="userSpaceOnUse"><path
         id="path404"
         d="M 0,194.193 H 113.815 V 0 H 0 Z" /></clipPath><clipPath
       id="clipPath418"
       clipPathUnits="userSpaceOnUse"><path
         id="path416"
         d="m 38.608,144.977 c 0.117,-0.172 11.589,-17.46 0.326,-35.454 v 0 l 2.326,-1.15 c 12.031,19.222 -0.251,37.646 -0.375,37.829 v 0 z" /></clipPath><linearGradient
       id="linearGradient434"
       spreadMethod="pad"
       gradientTransform="matrix(-7.9301758,0,0,-7.9301758,46.538574,127.28809)"
       gradientUnits="userSpaceOnUse"
       y2="0"
       x2="1"
       y1="0"
       x1="0"><stop
         id="stop424"
         offset="0"
         style="stop-opacity:1;stop-color:#0e090f" /><stop
         id="stop426"
         offset="0.34274633"
         style="stop-opacity:1;stop-color:#38243d" /><stop
         id="stop428"
         offset="0.810811"
         style="stop-opacity:1;stop-color:#38243d" /><stop
         id="stop430"
         offset="0.9974947"
         style="stop-opacity:1;stop-color:#38243d" /><stop
         id="stop432"
         offset="1"
         style="stop-opacity:1;stop-color:#38243d" /></linearGradient><clipPath
       id="clipPath444"
       clipPathUnits="userSpaceOnUse"><path
         id="path442"
         d="m 38.975,149.13 c -1.134,-0.286 -2.213,-1.69 -2.599,-2.715 v 0 c -0.291,-0.769 -0.31,-1.662 -0.18,-2.6 v 0 c 0.28,-1.989 1.242,-4.177 1.745,-5.787 v 0 c 1.034,-3.304 2.13,-6.593 3.328,-9.843 v 0 c 1.206,-3.277 2.492,-6.554 4.113,-9.653 v 0 c 0.398,-0.761 1.719,-2.986 2.321,-3.909 v 0 l 6.392,4.534 c -0.559,1.537 -1.025,3.513 -1.535,5.026 v 0 c -1.341,3.971 -2.617,7.961 -3.914,11.945 v 0 c -0.578,1.775 -1.157,3.549 -1.754,5.319 v 0 c -1.095,3.241 -2.598,7.871 -6.495,7.871 v 0 c -0.442,0 -0.915,-0.06 -1.422,-0.188" /></clipPath><linearGradient
       id="linearGradient456"
       spreadMethod="pad"
       gradientTransform="matrix(14.073418,21.658691,21.658691,-14.073418,37.629395,121.1709)"
       gradientUnits="userSpaceOnUse"
       y2="0"
       x2="1"
       y1="0"
       x1="0"><stop
         id="stop450"
         offset="0"
         style="stop-opacity:1;stop-color:#ef9367" /><stop
         id="stop452"
         offset="0.86199466"
         style="stop-opacity:1;stop-color:#d8d2b3" /><stop
         id="stop454"
         offset="1"
         style="stop-opacity:1;stop-color:#d8d2b3" /></linearGradient><clipPath
       id="clipPath466"
       clipPathUnits="userSpaceOnUse"><path
         id="path464"
         d="m 47.178,120.774 c -1.345,-1.053 -1.168,-3.157 -0.507,-4.732 v 0 c 0.157,-0.375 0.341,-0.748 0.567,-1.089 v 0 c 0.293,-0.442 0.655,-0.827 1.115,-1.085 v 0 c 0.867,-0.486 1.924,-0.436 2.915,-0.362 v 0 c 3.807,0.278 7.605,0.673 11.389,1.183 v 0 c 1.889,0.254 4.47,0.519 6.346,0.858 v 0 l -0.052,4.703 c -6.16,0.374 -12.319,0.748 -18.479,1.122 v 0 c -0.307,0.019 -0.623,0.035 -0.938,0.035 v 0 c -0.853,0 -1.699,-0.119 -2.356,-0.633" /></clipPath><linearGradient
       id="linearGradient478"
       spreadMethod="pad"
       gradientTransform="matrix(-17.325159,-11.76022,-11.76022,17.325159,66.494141,123.86914)"
       gradientUnits="userSpaceOnUse"
       y2="0"
       x2="1"
       y1="0"
       x1="0"><stop
         id="stop472"
         offset="0"
         style="stop-opacity:1;stop-color:#d8d2b3" /><stop
         id="stop474"
         offset="0.95626978"
         style="stop-opacity:1;stop-color:#ef9367" /><stop
         id="stop476"
         offset="1"
         style="stop-opacity:1;stop-color:#ef9367" /></linearGradient><clipPath
       id="clipPath488"
       clipPathUnits="userSpaceOnUse"><path
         id="path486"
         d="M 0,194.193 H 113.815 V 0 H 0 Z" /></clipPath><clipPath
       id="clipPath500"
       clipPathUnits="userSpaceOnUse"><path
         id="path498"
         d="m 19.003,156.135 5.542,-9.052 14.756,6.402 c -0.82,0.26 -1.614,0.594 -2.415,0.917 v 0 c -0.369,0.15 -0.715,0.31 -1.044,0.483 v 0 l -10.234,-4.438 -4.042,6.603 c -0.841,-0.374 -1.694,-0.673 -2.563,-0.915" /></clipPath><linearGradient
       id="linearGradient516"
       spreadMethod="pad"
       gradientTransform="matrix(-22.556053,0,0,-22.556053,40.036621,152.06641)"
       gradientUnits="userSpaceOnUse"
       y2="0"
       x2="1"
       y1="0"
       x1="0"><stop
         id="stop506"
         offset="0"
         style="stop-opacity:1;stop-color:#0e090f" /><stop
         id="stop508"
         offset="0.34274633"
         style="stop-opacity:1;stop-color:#38243d" /><stop
         id="stop510"
         offset="0.810811"
         style="stop-opacity:1;stop-color:#38243d" /><stop
         id="stop512"
         offset="0.9974947"
         style="stop-opacity:1;stop-color:#38243d" /><stop
         id="stop514"
         offset="1"
         style="stop-opacity:1;stop-color:#38243d" /></linearGradient><clipPath
       id="clipPath526"
       clipPathUnits="userSpaceOnUse"><path
         id="path524"
         d="m 6.104,122.771 c -0.759,-7.718 -0.673,-18.637 7.807,-22.106 v 0 c 3.138,-1.282 6.565,-1.517 9.926,-1.463 v 0 c 4.389,0.072 9.286,0.384 13.06,2.878 v 0 c 4.476,2.957 5.713,8.639 6.113,13.687 v 0 c 0.373,4.685 -1.544,8.617 -2.055,13.28 v 0 c -0.14,1.274 -1.317,9.237 -2.352,12.285 v 0 l -28.058,1.912 C 8.721,136.49 6.789,129.747 6.104,122.771" /></clipPath><linearGradient
       id="linearGradient540"
       spreadMethod="pad"
       gradientTransform="matrix(-33.315502,-33.315502,33.315502,-33.315502,40.571777,139.36133)"
       gradientUnits="userSpaceOnUse"
       y2="0"
       x2="1"
       y1="0"
       x1="0"><stop
         id="stop532"
         offset="0"
         style="stop-opacity:1;stop-color:#fb6000" /><stop
         id="stop534"
         offset="0.340541"
         style="stop-opacity:1;stop-color:#fb6000" /><stop
         id="stop536"
         offset="0.54971595"
         style="stop-opacity:1;stop-color:#fb6000" /><stop
         id="stop538"
         offset="1"
         style="stop-opacity:1;stop-color:#ffb546" /></linearGradient><clipPath
       id="clipPath550"
       clipPathUnits="userSpaceOnUse"><path
         id="path548"
         d="m 10.545,143.244 c -0.404,-1.492 -0.154,-0.541 -0.554,-2.034 v 0 l 23.98,-5.96 c 3.992,-7.588 7.434,-20.981 2.753,-28.931 v 0 c -1.941,-3.294 -5.169,-5.807 -8.838,-6.879 v 0 c 4.856,-0.227 9.752,2.283 12.4,6.36 v 0 c 4.232,6.515 2.389,14.895 1.441,22.122 v 0 c -0.239,1.818 -3.598,15.322 -3.598,15.322 v 0 z" /></clipPath><clipPath
       id="clipPath558"
       clipPathUnits="userSpaceOnUse"><path
         id="path556"
         d="M -32768,32767 H 32767 V -32768 H -32768 Z" /></clipPath><linearGradient
       id="linearGradient564"
       spreadMethod="pad"
       gradientTransform="matrix(-32.960937,0,0,-32.960937,42.952148,121.33496)"
       gradientUnits="userSpaceOnUse"
       y2="0"
       x2="1"
       y1="0"
       x1="0"><stop
         id="stop560"
         offset="0"
         style="stop-opacity:1;stop-color:#ffffff" /><stop
         id="stop562"
         offset="1"
         style="stop-opacity:0.2;stop-color:#ffffff" /></linearGradient><mask
       id="mask566"
       height="1"
       width="1"
       y="0"
       x="0"
       maskUnits="userSpaceOnUse"><g
         id="g576"><g
           id="g574"
           clip-path="url(#clipPath558)"><g
             id="g572"><g
               id="g570"><path
                 id="path568"
                 style="fill:url(#linearGradient564);stroke:none"
                 d="M -32768,32767 H 32767 V -32768 H -32768 Z" /></g></g></g></g></mask><linearGradient
       id="linearGradient586"
       spreadMethod="pad"
       gradientTransform="matrix(-32.960937,0,0,-32.960937,42.952148,121.33496)"
       gradientUnits="userSpaceOnUse"
       y2="0"
       x2="1"
       y1="0"
       x1="0"><stop
         id="stop582"
         offset="0"
         style="stop-opacity:1;stop-color:#de0e02" /><stop
         id="stop584"
         offset="1"
         style="stop-opacity:1;stop-color:#fc2a1b" /></linearGradient><clipPath
       id="clipPath596"
       clipPathUnits="userSpaceOnUse"><path
         id="path594"
         d="m 35.728,151.219 c -0.029,-0.003 -0.054,-0.015 -0.083,-0.019 v 0 c -3.252,-0.434 -5.499,-3.597 -5.025,-7.122 v 0 c 0.368,-2.745 2.282,-4.885 4.652,-5.545 v 0 c 0.698,-0.196 1.433,-0.278 2.184,-0.19 v 0 c 3.299,0.388 5.586,3.584 5.109,7.14 v 0 c -0.445,3.317 -3.138,5.775 -6.175,5.775 v 0 c -0.219,0 -0.44,-0.013 -0.662,-0.039" /></clipPath><linearGradient
       id="linearGradient606"
       spreadMethod="pad"
       gradientTransform="matrix(-12.071289,0,0,-12.071289,42.62793,144.78223)"
       gradientUnits="userSpaceOnUse"
       y2="0"
       x2="1"
       y1="0"
       x1="0"><stop
         id="stop602"
         offset="0"
         style="stop-opacity:1;stop-color:#de0e02" /><stop
         id="stop604"
         offset="1"
         style="stop-opacity:1;stop-color:#fc2a1b" /></linearGradient><clipPath
       id="clipPath616"
       clipPathUnits="userSpaceOnUse"><path
         id="path614"
         d="m 34.074,141.722 c -1.204,0 -2.202,0.309 -3.04,0.792 v 0 c 0.756,-1.972 2.343,-3.452 4.238,-3.981 v 0 c 0.698,-0.196 1.433,-0.278 2.184,-0.19 v 0 c 3.299,0.388 5.586,3.584 5.109,7.14 v 0 c -0.278,2.066 -1.44,3.776 -3.001,4.788 v 0 c 1.35,-3.612 -0.469,-8.549 -5.49,-8.549" /></clipPath><clipPath
       id="clipPath624"
       clipPathUnits="userSpaceOnUse"><path
         id="path622"
         d="M -32768,32767 H 32767 V -32768 H -32768 Z" /></clipPath><linearGradient
       id="linearGradient632"
       spreadMethod="pad"
       gradientTransform="matrix(-11.59375,0,0,-11.59375,42.62793,144.29004)"
       gradientUnits="userSpaceOnUse"
       y2="0"
       x2="1"
       y1="0"
       x1="0"><stop
         id="stop626"
         offset="0"
         style="stop-opacity:1;stop-color:#ffffff" /><stop
         id="stop628"
         offset="0.0027027"
         style="stop-opacity:1;stop-color:#ffffff" /><stop
         id="stop630"
         offset="1"
         style="stop-opacity:0.50000763;stop-color:#ffffff" /></linearGradient><mask
       id="mask634"
       height="1"
       width="1"
       y="0"
       x="0"
       maskUnits="userSpaceOnUse"><g
         id="g644"><g
           id="g642"
           clip-path="url(#clipPath624)"><g
             id="g640"><g
               id="g638"><path
                 id="path636"
                 style="fill:url(#linearGradient632);stroke:none"
                 d="M -32768,32767 H 32767 V -32768 H -32768 Z" /></g></g></g></g></mask><linearGradient
       id="linearGradient656"
       spreadMethod="pad"
       gradientTransform="matrix(-11.59375,0,0,-11.59375,42.62793,144.29004)"
       gradientUnits="userSpaceOnUse"
       y2="0"
       x2="1"
       y1="0"
       x1="0"><stop
         id="stop650"
         offset="0"
         style="stop-opacity:1;stop-color:#c5170a" /><stop
         id="stop652"
         offset="0.0027027"
         style="stop-opacity:1;stop-color:#c5170a" /><stop
         id="stop654"
         offset="1"
         style="stop-opacity:1;stop-color:#da1e11" /></linearGradient><clipPath
       id="clipPath666"
       clipPathUnits="userSpaceOnUse"><path
         id="path664"
         d="m 12.477,152.787 c -0.572,-0.087 -1.143,-0.25 -1.716,-0.527 v 0 c -1.759,-0.855 -3.099,-2.418 -3.126,-4.411 v 0 c -0.028,-2.083 1.398,-3.566 3.257,-4.196 v 0 c 2.61,-0.888 5.431,-1.213 8.123,-1.768 v 0 c 5.418,-1.118 10.837,-2.235 16.257,-3.352 v 0 c -2.37,0.66 -4.284,2.8 -4.652,5.545 v 0 c -0.474,3.525 1.773,6.688 5.025,7.122 v 0 c -0.46,-0.061 -1.031,0.077 -1.492,0.112 v 0 c -3.714,0.279 -7.43,0.56 -11.145,0.839 v 0 c -1.815,0.137 -3.632,0.32 -5.449,0.411 v 0 c -1.331,0.066 -2.619,0.308 -3.893,0.308 v 0 c -0.397,0 -0.794,-0.023 -1.189,-0.083" /></clipPath><linearGradient
       id="linearGradient680"
       spreadMethod="pad"
       gradientTransform="matrix(-22.961513,-13.256836,13.256836,-22.961513,34.99707,152.32324)"
       gradientUnits="userSpaceOnUse"
       y2="0"
       x2="1"
       y1="0"
       x1="0"><stop
         id="stop672"
         offset="0"
         style="stop-opacity:1;stop-color:#fb6000" /><stop
         id="stop674"
         offset="0.340541"
         style="stop-opacity:1;stop-color:#fb6000" /><stop
         id="stop676"
         offset="0.54971595"
         style="stop-opacity:1;stop-color:#fb6000" /><stop
         id="stop678"
         offset="1"
         style="stop-opacity:1;stop-color:#ffb546" /></linearGradient><clipPath
       id="clipPath690"
       clipPathUnits="userSpaceOnUse"><path
         id="path688"
         d="m 12.647,152.991 c -0.068,-0.007 -0.127,-0.034 -0.194,-0.044 v 0 c -1.214,-0.187 -2.279,-0.758 -3.11,-1.582 v 0 c -0.066,-0.066 -0.121,-0.143 -0.177,-0.217 v 0 l 8.596,-0.436 c 4.846,-0.246 9.915,-0.956 14.848,-1.002 v 0 c 0.826,0.779 1.847,1.332 3.035,1.49 v 0 l -20.586,1.55 c -0.563,0.181 -1.154,0.279 -1.758,0.279 v 0 c -0.216,0 -0.435,-0.012 -0.654,-0.038" /></clipPath><clipPath
       id="clipPath698"
       clipPathUnits="userSpaceOnUse"><path
         id="path696"
         d="M -32768,32767 H 32767 V -32768 H -32768 Z" /></clipPath><linearGradient
       id="linearGradient704"
       spreadMethod="pad"
       gradientTransform="matrix(-26.479492,0,0,-26.479492,35.64502,151.37012)"
       gradientUnits="userSpaceOnUse"
       y2="0"
       x2="1"
       y1="0"
       x1="0"><stop
         id="stop700"
         offset="0"
         style="stop-opacity:1;stop-color:#ffffff" /><stop
         id="stop702"
         offset="1"
         style="stop-opacity:0.09999237;stop-color:#ffffff" /></linearGradient><mask
       id="mask706"
       height="1"
       width="1"
       y="0"
       x="0"
       maskUnits="userSpaceOnUse"><g
         id="g716"><g
           id="g714"
           clip-path="url(#clipPath698)"><g
             id="g712"><g
               id="g710"><path
                 id="path708"
                 style="fill:url(#linearGradient704);stroke:none"
                 d="M -32768,32767 H 32767 V -32768 H -32768 Z" /></g></g></g></g></mask><linearGradient
       id="linearGradient726"
       spreadMethod="pad"
       gradientTransform="matrix(-26.479492,0,0,-26.479492,35.64502,151.37012)"
       gradientUnits="userSpaceOnUse"
       y2="0"
       x2="1"
       y1="0"
       x1="0"><stop
         id="stop722"
         offset="0"
         style="stop-opacity:1;stop-color:#fd9028" /><stop
         id="stop724"
         offset="1"
         style="stop-opacity:1;stop-color:#ffc746" /></linearGradient><clipPath
       id="clipPath736"
       clipPathUnits="userSpaceOnUse"><path
         id="path734"
         d="m 77.109,166.614 c -0.01,-9.448 0.001,-18.895 0.012,-28.343 v 0 c 2.556,0.245 5.318,0.446 7.78,-0.633 v 0 c 2.581,-1.131 3.143,-3.166 4.77,-5.592 v 0 c 2.876,-4.29 7.432,-6.016 11.699,-5.992 v 0 c 4.153,0.024 8.335,1.026 12.435,0.195 v 0 c 0.003,9.996 0.006,19.991 0.01,29.986 v 0 c -4.865,-0.712 -10.181,-1.303 -14.289,2.04 v 0 c -1.692,1.376 -3.035,3.325 -4.643,4.851 v 0 c -3.284,3.114 -7.206,3.707 -11.183,3.707 v 0 c -2.214,0 -4.445,-0.184 -6.591,-0.219" /></clipPath><linearGradient
       id="linearGradient746"
       spreadMethod="pad"
       gradientTransform="matrix(36.709961,-3.2e-6,3.2e-6,36.709961,77.104492,146.44434)"
       gradientUnits="userSpaceOnUse"
       y2="0"
       x2="1"
       y1="0"
       x1="0"><stop
         id="stop742"
         offset="0"
         style="stop-opacity:1;stop-color:#969696" /><stop
         id="stop744"
         offset="1"
         style="stop-opacity:1;stop-color:#ffffff" /></linearGradient><clipPath
       id="clipPath756"
       clipPathUnits="userSpaceOnUse"><path
         id="path754"
         d="M 75.779,168.584 V 9.481 c 0,-0.736 0.597,-1.331 1.331,-1.331 v 0 c 0.736,0 1.331,0.595 1.331,1.331 v 0 159.103 c 0,0.736 -0.595,1.331 -1.331,1.331 v 0 c -0.734,0 -1.331,-0.595 -1.331,-1.331" /></clipPath><linearGradient
       id="linearGradient772"
       spreadMethod="pad"
       gradientTransform="matrix(-2.6616211,0,0,-2.6616211,78.440918,89.032227)"
       gradientUnits="userSpaceOnUse"
       y2="0"
       x2="1"
       y1="0"
       x1="0"><stop
         id="stop762"
         offset="0"
         style="stop-opacity:1;stop-color:#0e090f" /><stop
         id="stop764"
         offset="0.34274633"
         style="stop-opacity:1;stop-color:#38243d" /><stop
         id="stop766"
         offset="0.810811"
         style="stop-opacity:1;stop-color:#38243d" /><stop
         id="stop768"
         offset="0.9974947"
         style="stop-opacity:1;stop-color:#38243d" /><stop
         id="stop770"
         offset="1"
         style="stop-opacity:1;stop-color:#38243d" /></linearGradient><clipPath
       id="clipPath782"
       clipPathUnits="userSpaceOnUse"><path
         id="path780"
         d="m 73.224,122.59 -3.89,-2.078 -0.983,-0.42 c -0.207,0.017 -0.612,0.053 -1.159,0.1 v 0 c 0.037,-1.582 0.133,-3.165 0.322,-4.73 v 0 c 0.414,0.032 0.814,0.064 1.24,0.098 v 0 l -0.002,0.027 7.932,-1.224 c 0,0 6.261,1.749 7.239,3.413 v 0 c 0.979,1.664 0.063,3.338 -0.131,3.502 v 0 c -0.196,0.163 -2.936,-0.952 -2.936,-0.952 v 0 c -0.542,-0.196 -5.522,0.533 -5.522,0.533 v 0 c 0,0 1.547,2.146 1.931,2.901 v 0 c 0.383,0.755 -0.616,1.342 -0.616,1.342 v 0 z" /></clipPath><linearGradient
       id="linearGradient794"
       spreadMethod="pad"
       gradientTransform="matrix(-14.614391,-24.312876,-24.312876,14.614391,78.755371,124.30566)"
       gradientUnits="userSpaceOnUse"
       y2="0"
       x2="1"
       y1="0"
       x1="0"><stop
         id="stop788"
         offset="0"
         style="stop-opacity:1;stop-color:#d8d2b3" /><stop
         id="stop790"
         offset="0.98746902"
         style="stop-opacity:1;stop-color:#e5af88" /><stop
         id="stop792"
         offset="1"
         style="stop-opacity:1;stop-color:#e5af88" /></linearGradient><clipPath
       id="clipPath804"
       clipPathUnits="userSpaceOnUse"><path
         id="path802"
         d="M 13.093,194.193 C 1.607,194.141 2.532,182.06 2.672,176.679 v 0 c 0.143,-5.5 -1.857,-6.278 -2.606,-6.764 v 0 c -0.751,-0.486 5.137,-2.241 7.569,0.761 v 0 c 2.431,3.002 5.298,7.409 6.239,10.706 v 0 c 0.942,3.297 10.064,5.892 11.128,2.344 v 0 c 0,0 1.181,9.953 -11.128,10.453 v 0 c -0.215,0.008 -0.427,0.013 -0.634,0.014 v 0 z" /></clipPath><linearGradient
       id="linearGradient820"
       spreadMethod="pad"
       gradientTransform="matrix(25.032715,0,0,-25.032715,0,181.57812)"
       gradientUnits="userSpaceOnUse"
       y2="0"
       x2="1"
       y1="0"
       x1="0"><stop
         id="stop810"
         offset="0"
         style="stop-opacity:1;stop-color:#0e090f" /><stop
         id="stop812"
         offset="0.34274633"
         style="stop-opacity:1;stop-color:#38243d" /><stop
         id="stop814"
         offset="0.810811"
         style="stop-opacity:1;stop-color:#38243d" /><stop
         id="stop816"
         offset="0.9974947"
         style="stop-opacity:1;stop-color:#38243d" /><stop
         id="stop818"
         offset="1"
         style="stop-opacity:1;stop-color:#38243d" /></linearGradient><clipPath
       id="clipPath830"
       clipPathUnits="userSpaceOnUse"><path
         id="path828"
         d="M 0,194.193 H 113.815 V 0 H 0 Z" /></clipPath></defs><g
     transform="matrix(1.3333333,0,0,-1.3333333,0,258.924)"
     id="g10"><g
       id="g12"><g
         clip-path="url(#clipPath18)"
         id="g14"><g
           id="g20"><g
             id="g22"><path
               id="path32"
               style="fill:url(#linearGradient30);stroke:none"
               d="m 15.897,150.973 c -0.739,-0.359 -1.367,-0.995 -1.915,-1.767 v 0 c -1.162,-1.639 -1.964,-3.89 -2.703,-5.406 v 0 c -1.517,-3.114 -2.977,-6.256 -4.336,-9.442 v 0 c -1.01,-2.363 -1.984,-4.744 -2.808,-7.179 v 0 C 3.531,125.387 2.896,123.234 3.429,121.35 v 0 c 0.523,-1.848 2.283,-2.562 4.07,-2.265 v 0 c 0.791,0.132 1.523,0.336 2.066,0.787 v 0 c 1.068,0.886 3.537,5.349 4.803,8.036 v 0 c 1.125,2.39 2.261,4.774 3.391,7.163 v 0 c 0.798,1.687 1.595,3.374 2.375,5.071 v 0 c 1.59,3.461 3.997,8.523 -0.484,11.022 v 0 c -0.402,0.225 -0.918,0.317 -1.455,0.317 v 0 c -0.825,0 -1.702,-0.218 -2.298,-0.508" /></g></g></g></g><g
       id="g34"><g
         clip-path="url(#clipPath40)"
         id="g36"><g
           id="g42"><g
             id="g44"><path
               id="path54"
               style="fill:url(#linearGradient52);stroke:none"
               d="m 29.888,118.071 -4.362,-0.645 -1.068,-0.063 c -0.189,0.086 -0.558,0.255 -1.057,0.485 v 0 c -0.499,-1.502 -0.942,-3.024 -1.292,-4.562 v 0 c 0.4,-0.109 0.788,-0.214 1.199,-0.326 v 0 l 0.008,0.026 7.054,-3.826 c 0,0 6.484,-0.466 7.967,0.77 v 0 c 1.482,1.237 1.186,3.123 1.057,3.341 v 0 c -0.129,0.219 -3.083,0.095 -3.083,0.095 v 0 c -0.577,-0.002 -5.02,2.364 -5.02,2.364 v 0 c 0,0 2.18,1.499 2.795,2.08 v 0 c 0.615,0.581 -0.126,1.471 -0.126,1.471 v 0 z" /></g></g></g></g><g
       id="g56"><g
         clip-path="url(#clipPath62)"
         id="g58"><g
           id="g64"><g
             id="g66"><path
               id="path76"
               style="fill:url(#linearGradient74);stroke:none"
               d="M 4.755,125.144 C 3.134,124.608 2.59,122.566 2.682,120.861 v 0 c 0.022,-0.405 0.07,-0.82 0.167,-1.217 v 0 c 0.126,-0.514 0.337,-0.999 0.684,-1.397 v 0 c 0.652,-0.75 1.664,-1.057 2.621,-1.323 v 0 c 3.678,-1.022 7.388,-1.932 11.121,-2.727 v 0 c 1.864,-0.398 4.383,-1.019 6.265,-1.332 v 0 l 1.536,4.445 c -5.673,2.429 -11.346,4.858 -17.018,7.288 v 0 c -0.785,0.336 -1.637,0.676 -2.469,0.676 v 0 c -0.281,0 -0.56,-0.039 -0.834,-0.13" /></g></g></g></g><g
       id="g78"><g
         clip-path="url(#clipPath84)"
         id="g80"><g
           transform="translate(17.0752,132.8477)"
           id="g86"><path
             id="path88"
             style="fill:#ffffff;fill-opacity:1;fill-rule:nonzero;stroke:none"
             d="M 0,0 C 3.112,4.791 11.959,14.952 5.769,20.764 -1.081,27.195 -12.877,9.589 -12.877,9.589 Z" /></g></g></g><g
       id="g90"><g
         clip-path="url(#clipPath96)"
         id="g92"><g
           id="g98"><g
             id="g100"><path
               id="path110"
               style="fill:url(#linearGradient108);stroke:none"
               d="m 22.508,121.1 c -1.234,-0.263 -2.402,-0.766 -3.443,-1.477 v 0 C 6.806,111.251 14.07,92.058 17.385,81.242 v 0 c 1.441,-4.697 3.449,-10.309 5.182,-14.907 v 0 c 6.3,-5.489 11.495,-0.272 11.495,-0.272 v 0 c 2.209,8.451 2.56,17.371 2.7,26.066 v 0 c 0.071,4.319 -2.107,20.121 -2.349,24.439 v 0 c -0.266,4.724 -0.944,6.197 -3.349,6.197 v 0 c -1.758,0 -4.438,-0.786 -8.556,-1.665" /></g></g></g></g><g
       id="g112"><g
         clip-path="url(#clipPath118)"
         id="g114"><g
           id="g120"><g
             id="g122"><path
               id="path132"
               style="fill:url(#linearGradient130);stroke:none"
               d="M 18.726,13.599 C 18.698,13.38 17.942,11.493 17.852,11.3 v 0 C 17.532,10.625 17.153,9.934 16.997,9.222 v 0 C 16.669,7.741 15.707,5.331 16.378,3.876 v 0 c 0.087,-0.19 0.227,-0.377 0.44,-0.567 v 0 c 0.553,-0.49 5.08,-1.045 6.578,-1.313 v 0 c 1.461,-0.261 2.922,-0.522 4.382,-0.783 v 0 C 34.477,-0.467 38.8,0.089 38.8,0.089 v 0 c 9.942,0.661 9.209,2.771 9.209,2.771 v 0 c -1.069,1.18 -2.064,1.551 -2.46,1.767 v 0 c -0.396,0.216 -8.127,2.2 -8.127,2.2 v 0 c 0,0 -6.679,3.512 -10.373,6.021 v 0 h 0.011 c -0.833,4.587 1.109,12.088 1.109,12.088 v 0 l -8.804,0.677 c 0,0 -0.228,-8.842 -0.639,-12.014" /></g></g></g></g><g
       id="g134"><g
         clip-path="url(#clipPath140)"
         id="g136"><g
           id="g142"><g
             id="g144"><path
               id="path154"
               style="fill:url(#linearGradient152);stroke:none"
               d="m 24.455,10.701 c -2.008,-0.071 -4.426,0.008 -6.623,0.559 v 0 C 17.517,10.598 17.15,9.92 16.997,9.222 v 0 C 16.669,7.741 15.707,5.331 16.378,3.876 v 0 c 0.087,-0.19 0.227,-0.377 0.44,-0.567 v 0 c 0.553,-0.49 5.08,-1.045 6.578,-1.313 v 0 c 1.461,-0.261 2.922,-0.522 4.382,-0.783 v 0 C 34.477,-0.467 38.8,0.089 38.8,0.089 v 0 c 9.942,0.661 9.209,2.771 9.209,2.771 v 0 c -1.069,1.18 -2.064,1.551 -2.46,1.767 v 0 c -0.396,0.216 -8.127,2.2 -8.127,2.2 v 0 c 0,0 -4.754,2.499 -8.458,4.788 v 0 C 27.518,11.028 25.89,10.753 24.455,10.701" /></g></g></g></g><g
       id="g156"><g
         clip-path="url(#clipPath162)"
         id="g158"><g
           id="g164"><g
             id="g166"><path
               id="path180"
               style="fill:url(#linearGradient178);stroke:none"
               d="M 22.972,67.37 C 17.769,54.761 18.332,31.833 19.134,21.356 v 0 l 9.138,-0.417 c 1.721,12.013 5.349,37.438 5.779,41.43 v 0 c 0.152,1.41 0.417,3.19 -0.367,4.467 v 0 c -0.892,1.454 -3.052,1.979 -4.592,2.352 v 0 c -0.492,0.12 -1.118,0.194 -1.785,0.194 v 0 c -1.722,0 -3.711,-0.498 -4.335,-2.012" /></g></g></g></g><g
       id="g182"><g
         clip-path="url(#clipPath188)"
         id="g184"><g
           id="g190"><g
             id="g192"><path
               id="path206"
               style="fill:url(#linearGradient204);stroke:none"
               d="m 25.723,110.711 c -0.024,-0.041 -0.054,-0.08 -0.077,-0.121 v 0 l -0.02,0.121 H 12.468 l -0.021,-0.02 c -0.97,-6.53 0.151,-11.14 0.151,-11.14 v 0 C 14.48,91.125 24.904,87.826 28.465,86.934 v 0 c 2.018,-4.112 4.314,-7.927 6.055,-11.019 v 0 c 2.411,-4.281 4.916,-8.522 7.591,-12.644 v 0 c 7.327,-4.016 11.943,1.378 11.943,1.378 v 0 c 0.352,8.727 -1.21,17.516 -2.93,26.04 v 0 c -0.696,3.446 -4.456,13.971 -6.459,20.022 v 0 z" /></g></g></g></g><g
       id="g208"><g
         clip-path="url(#clipPath214)"
         id="g210"><g
           id="g216"><g
             id="g218"><path
               id="path228"
               style="fill:url(#linearGradient226);stroke:none"
               d="m 43.787,23.725 c 0,0 0.742,-8.814 0.683,-12.013 v 0 c -0.005,-0.221 -0.549,-2.18 -0.618,-2.38 v 0 C 43.609,8.626 43.308,7.898 43.23,7.172 v 0 C 43.068,5.664 42.375,3.163 43.202,1.79 v 0 C 43.31,1.611 43.469,1.442 43.701,1.275 v 0 c 0.603,-0.426 5.164,-0.482 6.684,-0.584 v 0 c 1.479,-0.098 2.96,-0.198 4.439,-0.298 v 0 c 6.844,-0.934 11.08,0.091 11.08,0.091 v 0 c 9.809,1.748 8.849,3.765 8.849,3.765 v 0 c -1.191,1.056 -2.222,1.317 -2.639,1.488 v 0 c -0.416,0.171 -8.319,1.296 -8.319,1.296 v 0 c 0,0 -7.024,2.756 -10.97,4.845 v 0 l 0.01,10e-4 c -1.331,4.469 -0.223,12.137 -0.223,12.137 v 0 z" /></g></g></g></g><g
       id="g230"><g
         clip-path="url(#clipPath236)"
         id="g232"><g
           transform="translate(48.6592,23.8857)"
           id="g238"><path
             id="path240"
             style="fill:#ffd9b6;fill-opacity:1;fill-rule:nonzero;stroke:none"
             d="m 0,0 c -0.166,-0.481 -0.312,-0.97 -0.44,-1.464 -0.181,0.474 -0.355,0.951 -0.521,1.432 z" /></g></g></g><g
       id="g242"><g
         clip-path="url(#clipPath248)"
         id="g244"><g
           id="g250"><g
             id="g252"><path
               id="path262"
               style="fill:url(#linearGradient260);stroke:none"
               d="M 43.852,9.332 C 43.609,8.626 43.308,7.898 43.23,7.172 v 0 C 43.068,5.664 42.375,3.163 43.202,1.79 v 0 C 43.31,1.611 43.469,1.442 43.701,1.275 v 0 c 0.603,-0.426 5.164,-0.482 6.684,-0.584 v 0 c 1.479,-0.098 2.96,-0.198 4.439,-0.298 v 0 c 6.844,-0.934 11.08,0.091 11.08,0.091 v 0 c 9.809,1.748 8.849,3.765 8.849,3.765 v 0 c -1.191,1.056 -2.222,1.317 -2.639,1.488 v 0 c -0.416,0.171 -8.319,1.296 -8.319,1.296 v 0 c 0,0 -3.172,1.244 -6.45,2.694 v 0 C 57.275,9.705 57.204,9.684 57.129,9.666 v 0 C 53.126,8.732 49.06,8.457 45.259,10.27 v 0 c -0.328,0.156 -0.666,0.323 -1.007,0.498 v 0 c -0.161,-0.616 -0.361,-1.32 -0.4,-1.436" /></g></g></g></g><g
       id="g264"><g
         clip-path="url(#clipPath270)"
         id="g266"><g
           id="g272"><g
             id="g274"><path
               id="path284"
               style="fill:url(#linearGradient282);stroke:none"
               d="m 44.986,67.63 c -3.565,-1.705 -3.289,-6.555 -3.622,-9.92 v 0 c -0.332,-3.344 -0.41,-6.711 -0.355,-10.069 v 0 c 0.156,-9.434 1.268,-18.904 3.014,-28.173 v 0 l 9.129,0.588 c 0.394,12.129 1.212,37.799 1.202,41.813 v 0 c -0.006,2.072 -0.411,4.393 -2.371,5.509 v 0 C 50.891,68 49.544,68.315 48.208,68.315 v 0 c -1.136,0 -2.263,-0.227 -3.222,-0.685" /></g></g></g></g><g
       id="g286"><g
         clip-path="url(#clipPath292)"
         id="g288"><g
           id="g294"><g
             id="g296"><path
               id="path306"
               style="fill:url(#linearGradient304);stroke:none"
               d="m 41.405,165.412 2.967,-0.738 -1.688,5.884 z" /></g></g></g></g><g
       id="g308"><g
         clip-path="url(#clipPath314)"
         id="g310"><g
           id="g316"><g
             id="g318"><path
               id="path328"
               style="fill:url(#linearGradient326);stroke:none"
               d="m 25.002,156.549 c 0,0 0.17,-1.23 1.788,-2.598 v 0 c 2.033,-1.719 6.85,-1.311 7.844,-0.185 v 0 c 0,0 -0.325,9.673 -0.357,11.318 v 0 l -8.682,5.592 z" /></g></g></g></g><g
       id="g330"><g
         clip-path="url(#clipPath336)"
         id="g332"><g
           id="g338"><g
             id="g340"><path
               id="path350"
               style="fill:url(#linearGradient348);stroke:none"
               d="m 25.78,176.345 -0.809,-7.682 -0.226,-2.161 c 4.898,-8.332 13.011,-9.213 15.641,-6.431 v 0 c 2.63,2.781 3.813,18.669 3.813,18.669 v 0 l -17.89,2.642 z" /></g></g></g></g><g
       id="g352"><g
         clip-path="url(#clipPath358)"
         id="g354"><g
           id="g360"><g
             id="g362"><path
               id="path376"
               style="fill:url(#linearGradient374);stroke:none"
               d="m 25.002,183.726 c 0,0 -5.757,-0.585 -4.505,-8.438 v 0 c 1.254,-7.852 3.426,-14.452 5.347,-15.036 v 0 l 2.673,-0.935 c 0,0 6.182,13.047 8.103,14.134 v 0 c 1.922,1.086 8.354,-0.444 11.779,4.678 v 0 c 3.381,5.055 1.337,7.685 0,7.936 v 0 c -0.531,0.099 -1.244,-0.623 -2.19,-1.345 v 0 c -1.437,-1.096 -3.408,-2.192 -6.08,-0.41 v 0 c -2.155,1.437 -5.382,2.188 -8.318,2.188 v 0 c -3.209,0 -6.071,-0.896 -6.809,-2.772" /></g></g></g></g><g
       id="g378"><g
         clip-path="url(#clipPath384)"
         id="g380"><g
           id="g386"><g
             id="g388"><path
               id="path398"
               style="fill:url(#linearGradient396);stroke:none"
               d="m 32.27,173.514 c -1.983,-1.593 -1.898,-6.197 1.933,-8.735 v 0 l 1.568,7.555 c -0.145,0.83 -1.198,1.608 -2.263,1.608 v 0 c -0.43,0 -0.862,-0.127 -1.238,-0.428" /></g></g></g></g><g
       id="g400"><g
         clip-path="url(#clipPath406)"
         id="g402"><g
           transform="translate(25.6382,156.2612)"
           id="g408"><path
             id="path410"
             style="fill:#ffffff;fill-opacity:1;fill-rule:nonzero;stroke:none"
             d="m 0,0 c 5.278,-0.218 10.556,-2.16 15.283,-4.304 0.396,-0.18 3.356,-1.451 3.262,-2.013 -0.001,-0.008 -4.109,-24.534 -0.906,-33.407 l 2.89,-10.022 c 0,0 -21.016,-11.729 -34.386,1.81 0,0 -1.944,36.086 3.171,44.96 0.622,1.079 2.344,1.669 3.423,2.024 C -4.878,-0.166 -2.439,0.101 0,0" /></g></g></g><g
       id="g412"><g
         clip-path="url(#clipPath418)"
         id="g414"><g
           id="g420"><g
             id="g422"><path
               id="path436"
               style="fill:url(#linearGradient434);stroke:none"
               d="m 38.608,144.977 c 0.117,-0.172 11.589,-17.46 0.326,-35.454 v 0 l 2.326,-1.15 c 12.031,19.222 -0.251,37.646 -0.375,37.829 v 0 z" /></g></g></g></g><g
       id="g438"><g
         clip-path="url(#clipPath444)"
         id="g440"><g
           id="g446"><g
             id="g448"><path
               id="path458"
               style="fill:url(#linearGradient456);stroke:none"
               d="m 38.975,149.13 c -1.134,-0.286 -2.213,-1.69 -2.599,-2.715 v 0 c -0.291,-0.769 -0.31,-1.662 -0.18,-2.6 v 0 c 0.28,-1.989 1.242,-4.177 1.745,-5.787 v 0 c 1.034,-3.304 2.13,-6.593 3.328,-9.843 v 0 c 1.206,-3.277 2.492,-6.554 4.113,-9.653 v 0 c 0.398,-0.761 1.719,-2.986 2.321,-3.909 v 0 l 6.392,4.534 c -0.559,1.537 -1.025,3.513 -1.535,5.026 v 0 c -1.341,3.971 -2.617,7.961 -3.914,11.945 v 0 c -0.578,1.775 -1.157,3.549 -1.754,5.319 v 0 c -1.095,3.241 -2.598,7.871 -6.495,7.871 v 0 c -0.442,0 -0.915,-0.06 -1.422,-0.188" /></g></g></g></g><g
       id="g460"><g
         clip-path="url(#clipPath466)"
         id="g462"><g
           id="g468"><g
             id="g470"><path
               id="path480"
               style="fill:url(#linearGradient478);stroke:none"
               d="m 47.178,120.774 c -1.345,-1.053 -1.168,-3.157 -0.507,-4.732 v 0 c 0.157,-0.375 0.341,-0.748 0.567,-1.089 v 0 c 0.293,-0.442 0.655,-0.827 1.115,-1.085 v 0 c 0.867,-0.486 1.924,-0.436 2.915,-0.362 v 0 c 3.807,0.278 7.605,0.673 11.389,1.183 v 0 c 1.889,0.254 4.47,0.519 6.346,0.858 v 0 l -0.052,4.703 c -6.16,0.374 -12.319,0.748 -18.479,1.122 v 0 c -0.307,0.019 -0.623,0.035 -0.938,0.035 v 0 c -0.853,0 -1.699,-0.119 -2.356,-0.633" /></g></g></g></g><g
       id="g482"><g
         clip-path="url(#clipPath488)"
         id="g484"><g
           transform="translate(51.6689,136.0176)"
           id="g490"><path
             id="path492"
             style="fill:#ffffff;fill-opacity:1;fill-rule:nonzero;stroke:none"
             d="m 0,0 c -2.352,5.207 -6.129,18.14 -14.363,16.066 -9.111,-2.293 -0.66,-21.727 -0.66,-21.727 z" /></g></g></g><g
       id="g494"><g
         clip-path="url(#clipPath500)"
         id="g496"><g
           id="g502"><g
             id="g504"><path
               id="path518"
               style="fill:url(#linearGradient516);stroke:none"
               d="m 19.003,156.135 5.542,-9.052 14.756,6.402 c -0.82,0.26 -1.614,0.594 -2.415,0.917 v 0 c -0.369,0.15 -0.715,0.31 -1.044,0.483 v 0 l -10.234,-4.438 -4.042,6.603 c -0.841,-0.374 -1.694,-0.673 -2.563,-0.915" /></g></g></g></g><g
       id="g520"><g
         clip-path="url(#clipPath526)"
         id="g522"><g
           id="g528"><g
             id="g530"><path
               id="path542"
               style="fill:url(#linearGradient540);stroke:none"
               d="m 6.104,122.771 c -0.759,-7.718 -0.673,-18.637 7.807,-22.106 v 0 c 3.138,-1.282 6.565,-1.517 9.926,-1.463 v 0 c 4.389,0.072 9.286,0.384 13.06,2.878 v 0 c 4.476,2.957 5.713,8.639 6.113,13.687 v 0 c 0.373,4.685 -1.544,8.617 -2.055,13.28 v 0 c -0.14,1.274 -1.317,9.237 -2.352,12.285 v 0 l -28.058,1.912 C 8.721,136.49 6.789,129.747 6.104,122.771" /></g></g></g></g><g
       id="g544"><g
         clip-path="url(#clipPath550)"
         id="g546"><g
           id="g552"><g
             id="g554" /><g
             mask="url(#mask566)"
             id="g578"><g
               id="g580"><path
                 id="path588"
                 style="fill:url(#linearGradient586);stroke:none"
                 d="m 10.545,143.244 c -0.404,-1.492 -0.154,-0.541 -0.554,-2.034 v 0 l 23.98,-5.96 c 3.992,-7.588 7.434,-20.981 2.753,-28.931 v 0 c -1.941,-3.294 -5.169,-5.807 -8.838,-6.879 v 0 c 4.856,-0.227 9.752,2.283 12.4,6.36 v 0 c 4.232,6.515 2.389,14.895 1.441,22.122 v 0 c -0.239,1.818 -3.598,15.322 -3.598,15.322 v 0 z" /></g></g></g></g></g><g
       id="g590"><g
         clip-path="url(#clipPath596)"
         id="g592"><g
           id="g598"><g
             id="g600"><path
               id="path608"
               style="fill:url(#linearGradient606);stroke:none"
               d="m 35.728,151.219 c -0.029,-0.003 -0.054,-0.015 -0.083,-0.019 v 0 c -3.252,-0.434 -5.499,-3.597 -5.025,-7.122 v 0 c 0.368,-2.745 2.282,-4.885 4.652,-5.545 v 0 c 0.698,-0.196 1.433,-0.278 2.184,-0.19 v 0 c 3.299,0.388 5.586,3.584 5.109,7.14 v 0 c -0.445,3.317 -3.138,5.775 -6.175,5.775 v 0 c -0.219,0 -0.44,-0.013 -0.662,-0.039" /></g></g></g></g><g
       id="g610"><g
         clip-path="url(#clipPath616)"
         id="g612"><g
           id="g618"><g
             id="g620" /><g
             mask="url(#mask634)"
             id="g646"><g
               id="g648"><path
                 id="path658"
                 style="fill:url(#linearGradient656);stroke:none"
                 d="m 34.074,141.722 c -1.204,0 -2.202,0.309 -3.04,0.792 v 0 c 0.756,-1.972 2.343,-3.452 4.238,-3.981 v 0 c 0.698,-0.196 1.433,-0.278 2.184,-0.19 v 0 c 3.299,0.388 5.586,3.584 5.109,7.14 v 0 c -0.278,2.066 -1.44,3.776 -3.001,4.788 v 0 c 1.35,-3.612 -0.469,-8.549 -5.49,-8.549" /></g></g></g></g></g><g
       id="g660"><g
         clip-path="url(#clipPath666)"
         id="g662"><g
           id="g668"><g
             id="g670"><path
               id="path682"
               style="fill:url(#linearGradient680);stroke:none"
               d="m 12.477,152.787 c -0.572,-0.087 -1.143,-0.25 -1.716,-0.527 v 0 c -1.759,-0.855 -3.099,-2.418 -3.126,-4.411 v 0 c -0.028,-2.083 1.398,-3.566 3.257,-4.196 v 0 c 2.61,-0.888 5.431,-1.213 8.123,-1.768 v 0 c 5.418,-1.118 10.837,-2.235 16.257,-3.352 v 0 c -2.37,0.66 -4.284,2.8 -4.652,5.545 v 0 c -0.474,3.525 1.773,6.688 5.025,7.122 v 0 c -0.46,-0.061 -1.031,0.077 -1.492,0.112 v 0 c -3.714,0.279 -7.43,0.56 -11.145,0.839 v 0 c -1.815,0.137 -3.632,0.32 -5.449,0.411 v 0 c -1.331,0.066 -2.619,0.308 -3.893,0.308 v 0 c -0.397,0 -0.794,-0.023 -1.189,-0.083" /></g></g></g></g><g
       id="g684"><g
         clip-path="url(#clipPath690)"
         id="g686"><g
           id="g692"><g
             id="g694" /><g
             mask="url(#mask706)"
             id="g718"><g
               id="g720"><path
                 id="path728"
                 style="fill:url(#linearGradient726);stroke:none"
                 d="m 12.647,152.991 c -0.068,-0.007 -0.127,-0.034 -0.194,-0.044 v 0 c -1.214,-0.187 -2.279,-0.758 -3.11,-1.582 v 0 c -0.066,-0.066 -0.121,-0.143 -0.177,-0.217 v 0 l 8.596,-0.436 c 4.846,-0.246 9.915,-0.956 14.848,-1.002 v 0 c 0.826,0.779 1.847,1.332 3.035,1.49 v 0 l -20.586,1.55 c -0.563,0.181 -1.154,0.279 -1.758,0.279 v 0 c -0.216,0 -0.435,-0.012 -0.654,-0.038" /></g></g></g></g></g><g
       id="g730"><g
         clip-path="url(#clipPath736)"
         id="g732"><g
           id="g738"><g
             id="g740"><path
               id="path748"
               style="fill:url(#linearGradient746);stroke:none"
               d="m 77.109,166.614 c -0.01,-9.448 0.001,-18.895 0.012,-28.343 v 0 c 2.556,0.245 5.318,0.446 7.78,-0.633 v 0 c 2.581,-1.131 3.143,-3.166 4.77,-5.592 v 0 c 2.876,-4.29 7.432,-6.016 11.699,-5.992 v 0 c 4.153,0.024 8.335,1.026 12.435,0.195 v 0 c 0.003,9.996 0.006,19.991 0.01,29.986 v 0 c -4.865,-0.712 -10.181,-1.303 -14.289,2.04 v 0 c -1.692,1.376 -3.035,3.325 -4.643,4.851 v 0 c -3.284,3.114 -7.206,3.707 -11.183,3.707 v 0 c -2.214,0 -4.445,-0.184 -6.591,-0.219" /></g></g></g></g><g
       id="g750"><g
         clip-path="url(#clipPath756)"
         id="g752"><g
           id="g758"><g
             id="g760"><path
               id="path774"
               style="fill:url(#linearGradient772);stroke:none"
               d="M 75.779,168.584 V 9.481 c 0,-0.736 0.597,-1.331 1.331,-1.331 v 0 c 0.736,0 1.331,0.595 1.331,1.331 v 0 159.103 c 0,0.736 -0.595,1.331 -1.331,1.331 v 0 c -0.734,0 -1.331,-0.595 -1.331,-1.331" /></g></g></g></g><g
       id="g776"><g
         clip-path="url(#clipPath782)"
         id="g778"><g
           id="g784"><g
             id="g786"><path
               id="path796"
               style="fill:url(#linearGradient794);stroke:none"
               d="m 73.224,122.59 -3.89,-2.078 -0.983,-0.42 c -0.207,0.017 -0.612,0.053 -1.159,0.1 v 0 c 0.037,-1.582 0.133,-3.165 0.322,-4.73 v 0 c 0.414,0.032 0.814,0.064 1.24,0.098 v 0 l -0.002,0.027 7.932,-1.224 c 0,0 6.261,1.749 7.239,3.413 v 0 c 0.979,1.664 0.063,3.338 -0.131,3.502 v 0 c -0.196,0.163 -2.936,-0.952 -2.936,-0.952 v 0 c -0.542,-0.196 -5.522,0.533 -5.522,0.533 v 0 c 0,0 1.547,2.146 1.931,2.901 v 0 c 0.383,0.755 -0.616,1.342 -0.616,1.342 v 0 z" /></g></g></g></g><g
       id="g798"><g
         clip-path="url(#clipPath804)"
         id="g800"><g
           id="g806"><g
             id="g808"><path
               id="path822"
               style="fill:url(#linearGradient820);stroke:none"
               d="M 13.093,194.193 C 1.607,194.141 2.532,182.06 2.672,176.679 v 0 c 0.143,-5.5 -1.857,-6.278 -2.606,-6.764 v 0 c -0.751,-0.486 5.137,-2.241 7.569,0.761 v 0 c 2.431,3.002 5.298,7.409 6.239,10.706 v 0 c 0.942,3.297 10.064,5.892 11.128,2.344 v 0 c 0,0 1.181,9.953 -11.128,10.453 v 0 c -0.215,0.008 -0.427,0.013 -0.634,0.014 v 0 z" /></g></g></g></g><g
       id="g824"><g
         clip-path="url(#clipPath830)"
         id="g826"><g
           transform="translate(97.5313,135.2334)"
           id="g832"><path
             id="path834"
             style="fill:#e5224a;fill-opacity:1;fill-rule:nonzero;stroke:none"
             d="M 0,0 -0.53,0.156 -2.566,2.688 0.108,3.636 4.809,3.362 Z M -3.61,5.137 -3.946,5.9 -2.447,7.729 -2.802,5.391 Z m -5.752,-1.024 -0.47,0.292 -0.692,5.826 3.334,-3.325 1.072,-2.628 z m 2.902,19.849 5.021,-8.583 -0.67,-4.527 -3.35,6.486 c -0.045,0.088 -0.127,0.151 -0.222,0.175 -0.094,0.023 -0.195,0.007 -0.277,-0.051 l -3.068,-2.114 0.295,4.295 z m 6.472,-10.746 0.576,-0.961 -1.872,-1.926 0.201,2.653 z M 2.727,7.61 -0.361,9.341 6.533,11.111 6.989,7.493 Z m -8.694,3.896 -2.925,3.102 3.002,2.07 3.268,-6.324 z m -0.863,-3.991 -3.329,3.318 3.945,0.033 3.678,-1.266 z m 0.37,-0.581 3.377,1.639 -2.468,-3.869 z m 3.833,-3.54 1.245,4.417 1.024,-3.612 z M 0.322,4.311 -0.98,8.903 2.413,7 5.014,4.035 Z m 2.28,9.257 9.748,1.967 -1.712,-4.57 -3.009,-3.08 -0.464,3.697 c -0.012,0.1 -0.065,0.187 -0.147,0.242 -0.08,0.054 -0.182,0.072 -0.279,0.048 L -0.33,10.056 Z M 7.394,6.797 c 0.009,0.002 0.017,0 0.027,0.002 0.003,0 0.006,10e-4 0.009,10e-4 0.011,0.003 0.022,0.005 0.034,0.01 0.011,0.002 0.022,0.003 0.034,0.008 0.01,0.004 0.019,0.008 0.029,0.014 0.01,0.005 0.022,0.011 0.033,0.016 0.007,0.006 0.016,0.012 0.023,0.018 0.011,0.009 0.021,0.015 0.03,0.025 0.004,0.005 0.008,0.005 0.01,0.007 l 3.555,3.639 c 0.034,0.033 0.061,0.075 0.077,0.12 l 1.953,5.217 c 0.044,0.117 0.021,0.247 -0.06,0.341 -0.08,0.096 -0.207,0.139 -0.328,0.115 L 2.35,14.219 C 2.273,14.202 2.205,14.161 2.154,14.103 l -1.092,-1.31 -0.588,0.986 c -0.076,0.125 -0.222,0.188 -0.366,0.159 l -1.102,-0.236 0.252,1.697 c 0.01,0.078 -0.004,0.156 -0.044,0.224 l -5.394,9.219 c -0.063,0.107 -0.179,0.173 -0.304,0.168 -0.123,-0.002 -0.237,-0.072 -0.294,-0.181 l -2.593,-4.931 c -0.023,-0.042 -0.036,-0.09 -0.038,-0.137 l -0.35,-5.075 c 0.001,-0.004 0.002,-0.007 0.001,-0.012 -0.001,-0.014 0,-0.026 10e-4,-0.039 10e-4,-0.01 10e-4,-0.02 0.004,-0.031 0.002,-0.01 0.006,-0.023 0.009,-0.035 0.003,-0.01 0.005,-0.019 0.009,-0.03 0.004,-0.012 0.01,-0.021 0.016,-0.031 0.005,-0.013 0.009,-0.022 0.015,-0.031 0.003,-0.003 0.004,-0.007 0.006,-0.008 0.004,-0.009 0.011,-0.014 0.016,-0.022 0.007,-0.005 0.01,-0.014 0.017,-0.018 l 2.718,-2.883 -4.034,-0.033 h -0.002 -10e-4 c -0.003,-0.002 -0.005,0 -0.007,-10e-4 -0.021,-0.001 -0.041,-0.004 -0.061,-0.007 -0.008,-0.002 -0.015,-0.006 -0.022,-0.007 -0.015,-0.004 -0.03,-0.009 -0.044,-0.014 -0.008,-0.004 -0.015,-0.008 -0.025,-0.013 -0.012,-0.006 -0.023,-0.014 -0.035,-0.021 -0.009,-0.006 -0.016,-0.013 -0.024,-0.019 -0.007,-0.007 -0.015,-0.013 -0.023,-0.019 -0.001,-0.002 -0.004,-0.007 -0.006,-0.01 -0.002,-10e-4 -0.005,-0.003 -0.007,-0.006 -0.005,-0.005 -0.008,-0.011 -0.013,-0.019 -0.008,-0.008 -0.015,-0.02 -0.022,-0.031 -0.007,-0.008 -0.01,-0.016 -0.015,-0.027 -0.005,-0.011 -0.011,-0.023 -0.017,-0.036 -0.002,-0.009 -0.005,-0.019 -0.007,-0.027 -0.003,-0.014 -0.005,-0.027 -0.009,-0.041 0,-0.009 -10e-4,-0.019 -10e-4,-0.027 0,-0.014 -0.001,-0.029 0,-0.042 10e-4,-0.004 0,-0.011 0,-0.016 l 0.828,-6.97 c 0.013,-0.103 0.071,-0.194 0.16,-0.249 l 0.701,-0.437 c 0.013,-0.007 0.026,-0.016 0.04,-0.022 0.05,-0.022 0.103,-0.033 0.158,-0.03 l 3.834,0.196 c 0.015,0.003 0.029,0.004 0.042,0.007 0.002,-10e-4 0.003,-10e-4 0.005,0 0.021,0.003 0.04,0.009 0.06,0.017 0.002,0.002 0.004,0.003 0.005,0.002 10e-4,0 0.002,0.002 0.003,0.002 0.019,0.007 0.036,0.017 0.053,0.029 0.003,0.001 0.007,0.003 0.012,0.007 0.015,0.009 0.029,0.021 0.043,0.034 0.003,0.005 0.005,0.006 0.008,0.01 0.011,0.011 0.022,0.025 0.032,0.038 0.002,0.004 0.004,0.006 0.006,0.009 10e-4,0.002 10e-4,0.002 0.003,0.003 L -4.401,5.23 -4.114,4.58 C -4.079,4.5 -4.015,4.439 -3.94,4.406 -3.867,4.373 -3.78,4.366 -3.698,4.391 l 0.702,0.22 -0.47,-1.669 c 0,-0.002 0,-0.002 -10e-4,-0.004 C -3.469,2.934 -3.469,2.932 -3.47,2.927 -3.473,2.911 -3.476,2.895 -3.478,2.878 c 0,-0.005 0,-0.008 -10e-4,-0.013 0,-0.018 0,-0.037 0.002,-0.055 10e-4,-0.005 10e-4,-0.01 0.003,-0.013 0.003,-0.021 0.008,-0.04 0.014,-0.06 10e-4,-10e-4 0,-0.003 10e-4,-0.003 10e-4,-10e-4 10e-4,-0.003 10e-4,-0.005 0.007,-0.02 0.017,-0.039 0.028,-0.055 0,-0.003 0.001,-0.003 0.003,-0.003 0.007,-0.013 0.015,-0.025 0.024,-0.036 l 2.406,-2.993 c 0.033,-0.042 0.077,-0.077 0.127,-0.098 0.014,-0.006 0.028,-0.011 0.043,-0.016 l 0.792,-0.231 c 0.101,-0.03 0.207,-0.014 0.293,0.046 L 6.01,3.365 C 6.015,3.368 6.019,3.373 6.022,3.376 6.033,3.384 6.044,3.393 6.054,3.402 6.06,3.409 6.066,3.417 6.073,3.423 6.082,3.435 6.089,3.444 6.098,3.456 6.102,3.463 6.108,3.473 6.112,3.479 6.118,3.493 6.124,3.504 6.129,3.517 6.133,3.526 6.137,3.534 6.14,3.545 6.144,3.559 6.146,3.571 6.148,3.581 6.15,3.59 6.152,3.597 6.153,3.604 c 0,0.004 0.001,0.007 0,0.01 0.001,0.004 0.002,0.009 0.001,0.011 0.001,0.01 0,0.02 0,0.029 -0.001,0.009 0,0.021 -0.001,0.032 C 6.152,3.699 6.148,3.712 6.145,3.726 6.143,3.733 6.142,3.745 6.138,3.753 6.133,3.768 6.127,3.78 6.121,3.792 6.117,3.8 6.114,3.81 6.109,3.816 6.102,3.832 6.09,3.847 6.079,3.861 6.075,3.862 6.073,3.867 6.071,3.872 L 3.408,6.906 7.369,6.796 C 7.377,6.795 7.386,6.799 7.394,6.797" /></g></g></g></g></svg>